<svg width="278" height="79" viewBox="0 0 278 79" fill="none" xmlns="http://www.w3.org/2000/svg">
<circle cx="238.5" cy="39.5" r="38.75" stroke="#222222" stroke-width="1.5"/>
<path d="M244.707 40.7071C245.098 40.3166 245.098 39.6834 244.707 39.2929L238.343 32.929C237.953 32.5384 237.319 32.5384 236.929 32.929C236.538 33.3195 236.538 33.9526 236.929 34.3432L242.586 40L236.929 45.6569C236.538 46.0474 236.538 46.6806 236.929 47.0711C237.319 47.4616 237.953 47.4616 238.343 47.0711L244.707 40.7071ZM-8.74228e-08 41L244 41L244 39L8.74228e-08 39L-8.74228e-08 41Z" fill="#222222"/>
<path d="M8.825 8.85C6.94167 8.85 5.45 9.63333 4.35 11.2C3.25 12.7667 2.7 15.0333 2.7 18C2.7 21.6 3.525 23.925 5.175 24.975C5.675 25.2917 6.13333 25.5 6.55 25.6C6.98333 25.6833 7.45833 25.725 7.975 25.725C9.625 25.725 11.35 25.525 13.15 25.125L13.225 25.475C12.9417 25.575 12.1833 25.7083 10.95 25.875C9.73333 26.025 8.74167 26.1 7.975 26.1C7.20833 26.1 6.54167 26.05 5.975 25.95C5.40833 25.8333 4.80833 25.6 4.175 25.25C3.54167 24.9 3 24.4417 2.55 23.875C2.11667 23.2917 1.75 22.5 1.45 21.5C1.15 20.5 1 19.3333 1 18C1 15.05 1.675 12.75 3.025 11.1C4.44167 9.36667 6.375 8.5 8.825 8.5C9.575 8.5 10.3833 8.575 11.25 8.725C12.1333 8.85833 12.7583 8.99167 13.125 9.125L13.425 12.725L12.95 12.9L12.625 10.225C11.275 9.30833 10.0083 8.85 8.825 8.85ZM14.6719 17.3C14.6719 14.55 15.3719 12.3583 16.7719 10.725C18.1885 9.09167 19.9469 8.275 22.0469 8.275C26.9635 8.275 29.4219 11.2833 29.4219 17.3C29.4219 20.0667 28.7219 22.25 27.3219 23.85C25.9219 25.4333 24.1635 26.225 22.0469 26.225C17.1302 26.225 14.6719 23.25 14.6719 17.3ZM16.3719 17.25C16.3719 22.9 18.2635 25.725 22.0469 25.725C23.6802 25.725 25.0302 24.975 26.0969 23.475C27.1802 21.975 27.7219 19.9 27.7219 17.25C27.7219 11.6 25.8302 8.775 22.0469 8.775C20.4302 8.775 19.0802 9.53333 17.9969 11.05C16.9135 12.5667 16.3719 14.6333 16.3719 17.25ZM36.2066 8.5C36.2066 8.51667 36.215 8.64167 36.2316 8.875L34.5066 9.025V25.5H41.4066L41.9066 21.5L42.3816 21.625L42.0066 26H36.2066L31.1816 26.025L31.2066 25.675L32.5066 25.5C32.6733 25.4833 32.7733 25.375 32.8066 25.175V9.35C32.7733 9.15 32.6733 9.04167 32.5066 9.025L31.2066 8.9L31.1816 8.525L36.2066 8.5ZM48.9508 8.5C48.9508 8.51667 48.9591 8.64167 48.9758 8.875L47.2508 9.025V25.5H54.1508L54.6508 21.5L55.1258 21.625L54.7508 26H48.9508L43.9258 26.025L43.9508 25.675L45.2508 25.5C45.4174 25.4833 45.5174 25.375 45.5508 25.175V9.35C45.5174 9.15 45.4174 9.04167 45.2508 9.025L43.9508 8.9L43.9258 8.525L48.9508 8.5ZM56.5699 8.875L56.5949 8.5H67.2949L67.2699 8.575L67.5949 12.1L67.0949 12.3L66.6949 9H59.8949V17.075H65.8699C65.9533 17.0917 66.0283 17.075 66.0949 17.025C66.1616 16.9583 66.1949 16.875 66.1949 16.775L66.2949 15.05L66.6949 15V19.275C66.6783 19.275 66.5533 19.2833 66.3199 19.3L66.2199 17.575H59.8949V25.5H67.3699L67.8449 21.5L68.3199 21.625L67.9449 26H61.5949L56.5699 26.025L56.5949 25.675L57.8949 25.5C58.0616 25.4833 58.1616 25.375 58.1949 25.175V9.35C58.1616 9.15 58.0616 9.04167 57.8949 9.025L56.5699 8.875ZM77.282 8.85C75.3987 8.85 73.907 9.63333 72.807 11.2C71.707 12.7667 71.157 15.0333 71.157 18C71.157 21.6 71.982 23.925 73.632 24.975C74.132 25.2917 74.5904 25.5 75.007 25.6C75.4404 25.6833 75.9154 25.725 76.432 25.725C78.082 25.725 79.807 25.525 81.607 25.125L81.682 25.475C81.3987 25.575 80.6404 25.7083 79.407 25.875C78.1904 26.025 77.1987 26.1 76.432 26.1C75.6654 26.1 74.9987 26.05 74.432 25.95C73.8654 25.8333 73.2654 25.6 72.632 25.25C71.9987 24.9 71.457 24.4417 71.007 23.875C70.5737 23.2917 70.207 22.5 69.907 21.5C69.607 20.5 69.457 19.3333 69.457 18C69.457 15.05 70.132 12.75 71.482 11.1C72.8987 9.36667 74.832 8.5 77.282 8.5C78.032 8.5 78.8404 8.575 79.707 8.725C80.5904 8.85833 81.2154 8.99167 81.582 9.125L81.882 12.725L81.407 12.9L81.082 10.225C79.732 9.30833 78.4654 8.85 77.282 8.85ZM88.1701 9H83.8701L83.4701 12.3L82.9951 12.1L83.2451 9H83.2201L83.2701 8.8L83.2951 8.5L83.3451 8.525V8.5H94.6951L95.0201 12.1L94.5201 12.3L94.1201 9H89.7451V25.525L91.5701 25.625C91.5701 25.6417 91.5618 25.7667 91.5451 26L86.5451 26.025C86.5451 25.875 86.5535 25.7583 86.5701 25.675L87.8701 25.5C88.0368 25.4833 88.1368 25.375 88.1701 25.175V9ZM96.5381 26.025L96.5631 25.675L97.8631 25.5C98.0298 25.4833 98.1298 25.375 98.1631 25.175H98.1881V9.375H98.1631C98.1298 9.15833 98.0298 9.04167 97.8631 9.025L96.5631 8.9L96.5381 8.525L101.563 8.5C101.563 8.51667 101.571 8.64167 101.588 8.875L99.8881 9.025V25.525L101.588 25.625C101.588 25.6417 101.58 25.7667 101.563 26L96.5381 26.025ZM103.563 17.3C103.563 14.55 104.263 12.3583 105.663 10.725C107.08 9.09167 108.838 8.275 110.938 8.275C115.855 8.275 118.313 11.2833 118.313 17.3C118.313 20.0667 117.613 22.25 116.213 23.85C114.813 25.4333 113.055 26.225 110.938 26.225C106.022 26.225 103.563 23.25 103.563 17.3ZM105.263 17.25C105.263 22.9 107.155 25.725 110.938 25.725C112.572 25.725 113.922 24.975 114.988 23.475C116.072 21.975 116.613 19.9 116.613 17.25C116.613 11.6 114.722 8.775 110.938 8.775C109.322 8.775 107.972 9.53333 106.888 11.05C105.805 12.5667 105.263 14.6333 105.263 17.25ZM119.948 8.875L119.973 8.5H123.398L133.123 25.3L132.998 9.375C132.932 9.20833 132.84 9.11667 132.723 9.1L130.423 8.9C130.407 8.8 130.398 8.675 130.398 8.525L135.148 8.5C135.148 8.51667 135.157 8.64167 135.173 8.875L133.573 9.05V26H131.748L122.023 9.2L122.148 25.475L124.998 25.625C124.998 25.6417 124.99 25.7667 124.973 26L119.948 26.025L119.973 25.675L121.273 25.5C121.44 25.4833 121.54 25.375 121.573 25.175V9.35C121.54 9.15 121.44 9.04167 121.273 9.025L119.948 8.875Z" fill="#222222"/>
<path d="M135.125 53.875L135.15 53.5H138.575L148.3 70.3L148.175 54.375C148.108 54.2083 148.017 54.1167 147.9 54.1L145.6 53.9C145.583 53.8 145.575 53.675 145.575 53.525L150.325 53.5C150.325 53.5167 150.333 53.6417 150.35 53.875L148.75 54.05V71H146.925L137.2 54.2L137.325 70.475L140.175 70.625C140.175 70.6417 140.167 70.7667 140.15 71L135.125 71.025L135.15 70.675L136.45 70.5C136.617 70.4833 136.717 70.375 136.75 70.175V54.35C136.717 54.15 136.617 54.0417 136.45 54.025L135.125 53.875ZM152.167 53.875L152.192 53.5H162.892L162.867 53.575L163.192 57.1L162.692 57.3L162.292 54H155.492V62.075H161.467C161.55 62.0917 161.625 62.075 161.692 62.025C161.758 61.9583 161.792 61.875 161.792 61.775L161.892 60.05L162.292 60V64.275C162.275 64.275 162.15 64.2833 161.917 64.3L161.817 62.575H155.492V70.5H162.967L163.442 66.5L163.917 66.625L163.542 71H157.192L152.167 71.025L152.192 70.675L153.492 70.5C153.658 70.4833 153.758 70.375 153.792 70.175V54.35C153.758 54.15 153.658 54.0417 153.492 54.025L152.167 53.875ZM169.698 53.5C169.698 53.5167 169.706 53.6417 169.723 53.875L167.773 54.05L171.923 70.35L176.573 53.5H176.948L176.873 53.7L176.973 53.5L181.373 70.4L185.773 54.375C185.773 54.2083 185.698 54.1167 185.548 54.1L183.198 53.9L183.173 53.525L188.073 53.5C188.073 53.5167 188.081 53.6417 188.098 53.875L186.473 54.025L181.523 71H179.998L176.223 56.075L172.098 71H170.548L166.248 54.225C166.198 54.1083 166.115 54.0417 165.998 54.025L164.698 53.9L164.673 53.525L169.698 53.5Z" fill="#222222"/>
</svg>
