<svg width="32" height="37" viewBox="0 0 32 37" fill="none" xmlns="http://www.w3.org/2000/svg">
<g clip-path="url(#clip0_60_282)">
<path d="M28.5714 2.28613H3.42857C2.51926 2.28613 1.64719 2.64736 1.00421 3.29034C0.361223 3.93332 0 4.80539 0 5.7147L0 30.8576C0 31.7669 0.361223 32.639 1.00421 33.2819C1.64719 33.9249 2.51926 34.2861 3.42857 34.2861H13.2321V23.4069H8.73214V18.2861H13.2321V14.3833C13.2321 9.94399 15.875 7.49185 19.9229 7.49185C21.8614 7.49185 23.8886 7.83756 23.8886 7.83756V12.1947H21.655C19.4543 12.1947 18.7679 13.5604 18.7679 14.9611V18.2861H23.6807L22.895 23.4069H18.7679V34.2861H28.5714C29.4807 34.2861 30.3528 33.9249 30.9958 33.2819C31.6388 32.639 32 31.7669 32 30.8576V5.7147C32 4.80539 31.6388 3.93332 30.9958 3.29034C30.3528 2.64736 29.4807 2.28613 28.5714 2.28613Z" fill="#222222"/>
</g>
<defs>
<clipPath id="clip0_60_282">
<rect width="32" height="36.5714" fill="white"/>
</clipPath>
</defs>
</svg>
