<svg width="32" height="37" viewBox="0 0 32 37" fill="none" xmlns="http://www.w3.org/2000/svg">
<g clip-path="url(#clip0_60_278)">
<path d="M31.7751 11.6443L31.7752 11.6454C31.9249 14.2744 31.9249 22.1564 31.7752 24.7854L31.7751 24.7862C31.6473 27.3259 31.0666 29.5536 29.226 31.3878L29.2259 31.388C27.3853 33.2292 25.1497 33.808 22.6012 33.9282L22.6001 33.9283C19.9619 34.0775 12.0452 34.0775 9.40704 33.9283L9.40622 33.9282C6.85761 33.8009 4.62882 33.2221 2.78091 31.3876C0.933378 29.5535 0.352657 27.3259 0.231993 24.7866L0.231927 24.7854C0.0821963 22.1564 0.0821963 14.2673 0.231929 11.6383L0.231971 11.6375C0.359767 9.09752 0.933496 6.87006 2.78091 5.03606C4.62876 3.20162 6.86462 2.62285 9.40589 2.5026L9.40704 2.50253C12.0452 2.35332 19.9619 2.35332 22.6001 2.50254L22.6009 2.50258C25.1497 2.62993 27.3854 3.20876 29.226 5.04301L29.2262 5.04318C31.0737 6.87729 31.6544 9.10486 31.7751 11.6443ZM25.4888 30.7669L25.4892 30.7667C26.9279 30.1918 28.0318 29.092 28.6018 27.6647C29.029 26.595 29.1893 24.8028 29.2454 23.0062C29.2858 21.7163 29.2725 20.4098 29.2617 19.3476C29.2574 18.9263 29.2535 18.5435 29.2535 18.2154C29.2535 17.8872 29.2574 17.5045 29.2617 17.0833C29.2725 16.0218 29.2858 14.7165 29.2454 13.4273C29.1893 11.6314 29.029 9.83943 28.6018 8.76623L28.6017 8.76579C28.0246 7.33189 26.9209 6.23185 25.4889 5.66397L25.4886 5.66383C24.4155 5.24192 22.6176 5.08215 20.8146 5.02528C19.5105 4.98414 18.1897 4.99677 17.1195 5.007C16.7062 5.01095 16.3302 5.01454 16.0071 5.01454C15.6778 5.01454 15.2937 5.01066 14.8711 5.0064C13.8058 4.99564 12.496 4.98242 11.2023 5.02261C9.40026 5.07859 7.6022 5.23835 6.52547 5.66391L6.52503 5.66409C5.08639 6.239 3.98244 7.33884 3.41247 8.7661L3.41233 8.76644C2.98888 9.83596 2.82854 11.6279 2.77148 13.4245C2.7302 14.7242 2.74287 16.0405 2.75313 17.1069C2.75709 17.5188 2.7607 17.8934 2.7607 18.2154C2.7607 18.5436 2.75681 18.9263 2.75253 19.3475C2.74174 20.409 2.72847 21.7144 2.7688 23.0035C2.82497 24.7994 2.98529 26.5914 3.41242 27.6646L3.41259 27.665C3.98961 29.0989 5.09336 30.199 6.52533 30.7668L6.52567 30.767C7.59872 31.1889 9.39667 31.3487 11.1996 31.4055C12.5037 31.4467 13.8246 31.434 14.8947 31.4238C15.3081 31.4199 15.684 31.4163 16.0071 31.4163C16.3365 31.4163 16.7206 31.4201 17.1432 31.4244C18.2084 31.4352 19.5183 31.4484 20.8119 31.4082C22.614 31.3522 24.412 31.1925 25.4888 30.7669ZM7.92498 18.2154C7.92498 13.7578 11.5329 10.1618 16.0071 10.1618C20.4814 10.1618 24.0893 13.7578 24.0893 18.2154C24.0893 22.673 20.4814 26.269 16.0071 26.269C11.5329 26.269 7.92498 22.673 7.92498 18.2154ZM10.5464 18.2154C10.5464 21.2176 13.0029 23.6576 16.0071 23.6576C19.0114 23.6576 21.4678 21.2176 21.4678 18.2154C21.4678 15.2133 19.0186 12.7732 16.0071 12.7732C12.9956 12.7732 10.5464 15.2133 10.5464 18.2154ZM26.3393 9.70221C26.3393 10.6931 25.5388 11.4849 24.55 11.4849C23.5546 11.4849 22.7607 10.6865 22.7607 9.70221C22.7607 8.71818 23.5615 7.91957 24.55 7.91957C25.5385 7.91957 26.3393 8.71818 26.3393 9.70221Z" fill="#222222" stroke="#222222" stroke-width="0.25"/>
</g>
<defs>
<clipPath id="clip0_60_278">
<rect width="32" height="36.4444" fill="white"/>
</clipPath>
</defs>
</svg>
