<svg width="32" height="33" viewBox="0 0 32 33" fill="none" xmlns="http://www.w3.org/2000/svg">
<g clip-path="url(#clip0_70_152)">
<path d="M32 16.4575C32 25.2647 24.8387 32.4004 16 32.4004C14.3484 32.4004 12.7613 32.1497 11.2645 31.6868C11.9161 30.6261 12.8903 28.8904 13.2516 27.5082C13.4452 26.7625 14.2452 23.7154 14.2452 23.7154C14.7677 24.7054 16.2903 25.5475 17.9097 25.5475C22.7355 25.5475 26.2129 21.1246 26.2129 15.6282C26.2129 10.3632 21.8968 6.42251 16.3484 6.42251C9.44516 6.42251 5.77419 11.0382 5.77419 16.0718C5.77419 18.4118 7.02581 21.3239 9.01935 22.2497C9.32258 22.3911 9.48387 22.3268 9.55484 22.0375C9.60645 21.8189 9.87742 20.7325 10 20.2311C10.0387 20.0704 10.0194 19.9289 9.89032 19.7747C9.23871 18.9711 8.70968 17.5054 8.70968 16.1361C8.70968 12.6196 11.3806 9.21893 15.9355 9.21893C19.8645 9.21893 22.6194 11.8868 22.6194 15.7054C22.6194 20.0189 20.4323 23.0082 17.5871 23.0082C16.0194 23.0082 14.8387 21.7161 15.2194 20.1282C15.671 18.2318 16.5419 16.1875 16.5419 14.8182C16.5419 13.5968 15.8839 12.5746 14.5161 12.5746C12.9097 12.5746 11.6194 14.2268 11.6194 16.4446C11.6194 17.8589 12.0968 18.8104 12.0968 18.8104C12.0968 18.8104 10.5161 25.4832 10.2258 26.7304C9.90323 28.1061 10.0323 30.0475 10.1677 31.3075C4.21936 28.9868 0 23.2139 0 16.4575C0 7.65036 7.16129 0.514648 16 0.514648C24.8387 0.514648 32 7.65036 32 16.4575Z" fill="#222222"/>
</g>
<defs>
<clipPath id="clip0_70_152">
<rect width="32" height="32.9143" fill="white"/>
</clipPath>
</defs>
</svg>
