<svg width="608" height="215" viewBox="0 0 608 215" fill="none" xmlns="http://www.w3.org/2000/svg">
<path d="M44.03 48C44.03 48.0467 44.0533 48.3967 44.1 49.05L40.11 49.4L25.13 80.48V95.67L30.24 95.95C30.24 95.9967 30.2167 96.3467 30.17 97L16.17 97.07C16.17 96.65 16.1933 96.3233 16.24 96.09L19.88 95.6C20.3467 95.5533 20.6267 95.25 20.72 94.69V80.48L4.97 49.75C4.78333 49.61 4.59667 49.4933 4.41 49.4L1.47 49.12C1.42333 48.84 1.4 48.49 1.4 48.07L15.54 48C15.54 48.0467 15.5633 48.3967 15.61 49.05L9.87 49.54L24.36 79.29L37.45 50.59C37.45 50.03 37.24 49.7267 36.82 49.68L30.45 49.12C30.4033 48.84 30.38 48.49 30.38 48.07L44.03 48ZM65.9772 97.28C61.1239 97.28 57.1805 95.88 54.1472 93.08C51.1605 90.28 49.6672 86.01 49.6672 80.27C49.6672 74.4833 51.2539 69.9567 54.4272 66.69C57.6472 63.3767 61.6839 61.72 66.5372 61.72C71.3905 61.72 75.3339 63.12 78.3672 65.92C81.4005 68.72 82.9172 73.0133 82.9172 78.8C82.9172 84.54 81.3072 89.0667 78.0872 92.38C74.9139 95.6467 70.8772 97.28 65.9772 97.28ZM66.4672 62.98C62.9672 62.98 60.0505 64.4967 57.7172 67.53C55.3839 70.5633 54.2172 74.6933 54.2172 79.92C54.2172 85.1 55.3139 89.09 57.5072 91.89C59.7472 94.6433 62.6172 96.02 66.1172 96.02C69.6172 96.02 72.5339 94.5033 74.8672 91.47C77.2005 88.4367 78.3672 84.33 78.3672 79.15C78.3672 73.97 77.2472 69.98 75.0072 67.18C72.8139 64.38 69.9672 62.98 66.4672 62.98ZM89.3747 63.12L89.3047 62.07L98.7547 62V86.36C98.7547 88.18 99.0114 89.7667 99.5247 91.12C100.038 92.4267 100.598 93.3833 101.205 93.99C101.858 94.5967 102.605 95.0633 103.445 95.39C104.751 95.8567 105.848 96.0433 106.735 95.95C109.581 95.9033 112.825 94.4333 116.465 91.54V64.45C116.278 63.89 115.881 63.5633 115.275 63.47L111.635 63.12C111.588 62.84 111.565 62.49 111.565 62.07L121.015 62V93.78C121.108 94.9467 121.481 95.53 122.135 95.53L126.335 95.74L126.265 96.79C124.025 97.1633 121.691 97.35 119.265 97.35C118.705 97.3033 118.098 97 117.445 96.44C116.791 95.8333 116.465 95.0867 116.465 94.2V92.94C112.218 95.7867 108.205 97.21 104.425 97.21C102.838 97.21 100.971 96.8133 98.8247 96.02C97.4247 95.5067 96.3047 94.55 95.4647 93.15C94.6247 91.7033 94.2047 89.9067 94.2047 87.76V64.52C94.2047 64.2867 94.0647 64.0767 93.7847 63.89C93.5514 63.6567 93.2947 63.5167 93.0147 63.47L89.3747 63.12ZM141.831 64.87V70.47C145.518 65.0567 149.134 62.3033 152.681 62.21C152.961 62.21 153.241 62.21 153.521 62.21L157.441 62.7L155.621 66.9C154.734 66.0133 153.591 65.57 152.191 65.57C148.784 65.6167 145.331 67.88 141.831 72.36V95.6L147.781 95.95C147.781 95.9967 147.758 96.3467 147.711 97L133.011 97.07C133.011 96.65 133.034 96.3233 133.081 96.09L136.721 95.6C137.094 95.5533 137.281 95.2267 137.281 94.62V64.24C137.188 63.9133 137.048 63.75 136.861 63.75L132.661 63.61L132.731 62.63C135.251 62.21 137.164 62 138.471 62C139.778 62 140.664 62.3033 141.131 62.91C141.598 63.5167 141.831 64.17 141.831 64.87ZM363.111 92.45C363.111 92.45 364.371 92.4733 366.891 92.52C366.891 94.1533 366.354 96.3467 365.281 99.1C364.907 100.08 364.464 101.037 363.951 101.97C363.484 102.903 363.111 103.65 362.831 104.21L361.711 104.07L362.061 101.69C362.761 97.4433 363.111 94.8767 363.111 93.99C363.111 93.1033 363.111 92.59 363.111 92.45Z" fill="#222222"/>
<path d="M187.859 81.8633C187.859 76.8503 187.924 71.8698 188.055 66.9219C188.25 61.974 188.348 56.9609 188.348 51.8828C188.348 48.9531 188.185 46.0234 187.859 43.0938C187.599 40.1641 187.469 37.2344 187.469 34.3047C187.469 33.3932 187.729 32.612 188.25 31.9609C188.836 31.3099 189.585 30.9844 190.496 30.9844C192.059 30.9844 193.23 31.3099 194.012 31.9609C194.793 32.612 195.346 33.4258 195.672 34.4023C195.997 35.3789 196.16 36.4857 196.16 37.7227C196.16 38.9596 196.16 40.1641 196.16 41.3359C196.16 41.5964 196.16 42.2474 196.16 43.2891C196.225 44.3307 196.29 45.4701 196.355 46.707C196.421 47.8789 196.453 48.9857 196.453 50.0273C196.518 51.069 196.551 51.7201 196.551 51.9805V55.2031C196.551 59.4349 196.486 63.6341 196.355 67.8008C196.225 71.9674 196.16 76.1992 196.16 80.4961V84.5977C196.16 84.9232 196.193 85.3789 196.258 85.9648C196.388 86.4857 196.486 86.7461 196.551 86.7461H197.332L220.477 77.5664C220.997 77.1107 221.453 76.8828 221.844 76.8828C222.234 76.8177 222.69 76.7852 223.211 76.7852C223.536 76.7852 223.96 76.8177 224.48 76.8828C225.001 76.8828 225.49 76.9805 225.945 77.1758C226.466 77.306 226.889 77.5339 227.215 77.8594C227.605 78.1198 227.801 78.543 227.801 79.1289C227.801 80.6263 226.987 81.9284 225.359 83.0352C223.276 84.1419 221.128 85.1836 218.914 86.1602C216.701 87.0716 214.454 87.8203 212.176 88.4062L211.688 88.7969C208.562 89.6432 205.633 90.8802 202.898 92.5078C200.229 94.1354 197.43 95.6328 194.5 97H193.621C191.863 97 190.561 96.4141 189.715 95.2422C188.868 94.0703 188.315 92.7031 188.055 91.1406C187.794 89.513 187.697 87.8529 187.762 86.1602C187.827 84.4023 187.859 82.9701 187.859 81.8633ZM232.535 79.7148C232.6 79.3242 232.6 78.2826 232.535 76.5898C232.47 74.8971 232.438 72.8138 232.438 70.3398C232.503 67.8008 232.568 65.0339 232.633 62.0391C232.763 59.0443 232.991 56.0169 233.316 52.957C233.707 49.8971 234.228 46.9674 234.879 44.168C235.595 41.3034 236.507 38.8294 237.613 36.7461C238.004 34.9883 238.948 33.7839 240.445 33.1328C241.943 32.4167 244.059 31.9935 246.793 31.8633C248.551 31.8633 250.048 32.319 251.285 33.2305C252.522 34.1419 253.564 35.2812 254.41 36.6484C255.322 37.9505 256.103 39.3828 256.754 40.9453C257.405 42.5078 257.991 43.9076 258.512 45.1445V45.6328C258.967 46.9349 259.293 48.888 259.488 51.4922C259.749 54.0312 259.911 56.7331 259.977 59.5977C260.107 62.3971 260.172 65.099 260.172 67.7031C260.172 70.3073 260.172 72.293 260.172 73.6602C260.172 75.6133 259.911 77.957 259.391 80.6914C258.87 83.3607 258.023 85.8997 256.852 88.3086C255.745 90.7174 254.28 92.7682 252.457 94.4609C250.634 96.1536 248.453 97 245.914 97C243.766 97 241.845 96.4466 240.152 95.3398C238.525 94.2331 237.125 92.8333 235.953 91.1406C234.846 89.3828 234 87.4948 233.414 85.4766C232.828 83.4583 232.535 81.5378 232.535 79.7148ZM242.008 86.2578C242.138 86.974 242.496 87.7227 243.082 88.5039C243.733 89.2201 244.482 89.5781 245.328 89.5781H246.109C248.844 87.1042 250.634 84.2721 251.48 81.082C252.327 77.8268 252.75 74.4089 252.75 70.8281C252.75 69.9818 252.717 68.6797 252.652 66.9219C252.587 65.1641 252.457 63.2109 252.262 61.0625C252.132 58.849 251.936 56.5378 251.676 54.1289C251.415 51.7201 251.09 49.474 250.699 47.3906C250.309 45.2422 249.853 43.3867 249.332 41.8242C248.811 40.2617 248.193 39.1875 247.477 38.6016C247.411 38.6667 247.314 38.7969 247.184 38.9922C247.118 39.1875 247.086 39.3177 247.086 39.3828C245.719 41.0755 244.482 43.3867 243.375 46.3164C242.268 49.2461 241.422 52.7292 240.836 56.7656C240.315 60.737 240.087 65.2292 240.152 70.2422C240.283 75.1901 240.901 80.5286 242.008 86.2578ZM268.715 50.418C267.999 49.8971 267.315 49.0508 266.664 47.8789C266.013 46.707 265.688 45.6654 265.688 44.7539C265.688 43.7773 266.078 43.0286 266.859 42.5078C267.641 41.987 268.454 41.7266 269.301 41.7266C270.342 41.7266 271.221 41.9219 271.938 42.3125C272.654 42.7031 273.337 43.3542 273.988 44.2656C274.704 45.1771 275.486 46.4141 276.332 47.9766C277.243 49.5391 278.383 51.5247 279.75 53.9336C281.117 56.2773 282.842 59.1094 284.926 62.4297C287.009 65.6849 289.581 69.4935 292.641 73.8555C292.836 74.3763 293.194 75.0273 293.715 75.8086C294.236 76.5247 294.561 76.9805 294.691 77.1758L295.082 76.3945L300.453 56.1797L300.844 55.3008L304.652 41.7266C304.457 40.5547 304.717 39.513 305.434 38.6016C306.15 37.6901 307.061 37.2344 308.168 37.2344C309.275 37.2344 310.382 37.625 311.488 38.4062C312.66 39.1224 313.246 40.099 313.246 41.3359V41.7266L302.113 83.4258C302.113 83.556 302.048 83.9792 301.918 84.6953C301.788 85.3464 301.658 86.0951 301.527 86.9414C301.397 87.7227 301.267 88.5365 301.137 89.3828C301.007 90.1641 300.909 90.7826 300.844 91.2383C300.779 91.8242 300.714 92.4753 300.648 93.1914C300.648 93.8424 300.518 94.4609 300.258 95.0469C300.062 95.5677 299.737 96.0234 299.281 96.4141C298.826 96.8047 298.142 97 297.23 97C295.668 97 294.496 96.5768 293.715 95.7305C292.934 94.8841 292.348 93.875 291.957 92.7031C291.566 91.4661 291.241 90.1966 290.98 88.8945C290.72 87.5273 290.297 86.388 289.711 85.4766L268.715 50.418ZM325.207 94.8516C324.556 92.2474 324.068 89.806 323.742 87.5273C323.417 85.1836 323.189 82.7096 323.059 80.1055C322.993 78.6081 322.993 77.3385 323.059 76.2969C323.124 75.1901 322.993 73.9857 322.668 72.6836C322.603 72.4232 322.44 72.2279 322.18 72.0977C321.984 71.9674 321.757 71.8047 321.496 71.6094C321.301 71.4141 321.105 71.1862 320.91 70.9258C320.715 70.6003 320.617 70.112 320.617 69.4609C320.617 68.9401 320.715 68.4844 320.91 68.0938C321.171 67.7031 321.398 67.3451 321.594 67.0195C321.854 66.6289 322.082 66.2383 322.277 65.8477C322.538 65.3919 322.668 64.8711 322.668 64.2852V62.8203C322.668 62.1693 322.603 61.0625 322.473 59.5C322.342 57.9375 322.212 56.2773 322.082 54.5195C321.952 52.7617 321.822 51.1016 321.691 49.5391C321.626 47.9766 321.561 46.9023 321.496 46.3164C321.431 45.2096 321.138 44.2331 320.617 43.3867C320.096 42.5404 319.836 41.5638 319.836 40.457C319.836 38.3737 320.259 36.9089 321.105 36.0625C321.952 35.2161 323.449 34.793 325.598 34.793C326.053 34.793 326.411 34.9883 326.672 35.3789C326.997 35.7695 327.355 35.9648 327.746 35.9648H328.137C328.332 35.8997 328.625 35.8346 329.016 35.7695C329.406 35.6393 329.667 35.5742 329.797 35.5742C335.266 33.2305 339.53 31.4076 342.59 30.1055C345.65 28.8034 347.961 27.8594 349.523 27.2734C351.086 26.6875 352.128 26.362 352.648 26.2969C353.234 26.2318 353.723 26.2969 354.113 26.4922C354.895 26.6224 355.415 26.8828 355.676 27.2734C356.001 27.599 356.164 28.1198 356.164 28.8359C356.164 29.487 356.066 30.138 355.871 30.7891C355.676 31.4401 355.22 31.9284 354.504 32.2539L341.711 38.4062L341.32 38.7969L330.578 43.3867C330.188 43.5169 329.96 43.8424 329.895 44.3633C329.829 44.8841 329.797 45.3073 329.797 45.6328C329.797 46.1536 329.862 47.0977 329.992 48.4648C330.122 49.832 330.253 51.2643 330.383 52.7617C330.513 54.194 330.643 55.4961 330.773 56.668C330.969 57.7747 331.099 58.3281 331.164 58.3281H331.262C331.262 58.3281 331.294 58.2956 331.359 58.2305C332.076 57.7096 333.215 56.8307 334.777 55.5938C336.34 54.2917 337.935 52.9896 339.562 51.6875C341.19 50.3854 342.622 49.2461 343.859 48.2695C345.096 47.2279 345.747 46.707 345.812 46.707C346.529 46.707 347.18 47.0651 347.766 47.7812C348.352 48.4974 348.645 49.2461 348.645 50.0273C348.645 50.8086 348.482 51.6875 348.156 52.6641C347.831 53.6406 347.31 54.3893 346.594 54.9102L331.359 68.4844C331.359 68.4844 331.359 68.6471 331.359 68.9727C331.359 69.2982 331.327 69.6562 331.262 70.0469C331.262 70.4375 331.262 70.8607 331.262 71.3164C331.262 71.707 331.262 72.0326 331.262 72.293C331.262 74.6367 331.424 76.9805 331.75 79.3242C332.076 81.6029 332.238 83.9141 332.238 86.2578H332.629C332.694 86.2578 332.987 85.9974 333.508 85.4766C334.029 84.9557 334.419 84.5326 334.68 84.207C334.81 84.0117 335.103 83.5885 335.559 82.9375C336.079 82.2865 336.926 81.2122 338.098 79.7148C339.27 78.2174 340.832 76.2318 342.785 73.7578C344.738 71.2839 347.245 68.1589 350.305 64.3828C350.565 64.1224 350.923 63.7318 351.379 63.2109C351.9 62.6901 352.225 62.4297 352.355 62.4297C352.551 62.2344 352.941 62.1693 353.527 62.2344C354.178 62.2344 354.634 62.2995 354.895 62.4297C355.22 62.5599 355.643 62.918 356.164 63.5039C356.685 64.0898 356.945 64.6432 356.945 65.1641C356.945 65.9453 356.522 66.987 355.676 68.2891C354.895 69.526 353.951 70.8281 352.844 72.1953C351.737 73.5625 350.63 74.8971 349.523 76.1992C348.417 77.4362 347.57 78.4453 346.984 79.2266C346.073 80.6589 344.966 82.4167 343.664 84.5C342.427 86.5182 341.06 88.4714 339.562 90.3594C338.065 92.1823 336.405 93.7773 334.582 95.1445C332.824 96.4466 330.936 97.0977 328.918 97.0977C327.941 97.0977 327.225 96.9349 326.77 96.6094C326.379 96.2839 325.858 95.6979 325.207 94.8516Z" fill="#81D8D1"/>
<path d="M191.905 152C191.905 152.047 191.928 152.397 191.975 153.05L187.985 153.4L173.005 184.48V199.67L178.115 199.95C178.115 199.997 178.091 200.347 178.045 201L164.045 201.07C164.045 200.65 164.068 200.323 164.115 200.09L167.755 199.6C168.221 199.553 168.501 199.25 168.595 198.69V184.48L152.845 153.75C152.658 153.61 152.471 153.493 152.285 153.4L149.345 153.12C149.298 152.84 149.275 152.49 149.275 152.07L163.415 152C163.415 152.047 163.438 152.397 163.485 153.05L157.745 153.54L172.235 183.29L185.325 154.59C185.325 154.03 185.115 153.727 184.695 153.68L178.325 153.12C178.278 152.84 178.255 152.49 178.255 152.07L191.905 152ZM213.852 201.28C208.998 201.28 205.055 199.88 202.022 197.08C199.035 194.28 197.542 190.01 197.542 184.27C197.542 178.483 199.128 173.957 202.302 170.69C205.522 167.377 209.558 165.72 214.412 165.72C219.265 165.72 223.208 167.12 226.242 169.92C229.275 172.72 230.792 177.013 230.792 182.8C230.792 188.54 229.182 193.067 225.962 196.38C222.788 199.647 218.752 201.28 213.852 201.28ZM214.342 166.98C210.842 166.98 207.925 168.497 205.592 171.53C203.258 174.563 202.092 178.693 202.092 183.92C202.092 189.1 203.188 193.09 205.382 195.89C207.622 198.643 210.492 200.02 213.992 200.02C217.492 200.02 220.408 198.503 222.742 195.47C225.075 192.437 226.242 188.33 226.242 183.15C226.242 177.97 225.122 173.98 222.882 171.18C220.688 168.38 217.842 166.98 214.342 166.98ZM237.249 167.12L237.179 166.07L246.629 166V190.36C246.629 192.18 246.886 193.767 247.399 195.12C247.913 196.427 248.473 197.383 249.079 197.99C249.733 198.597 250.479 199.063 251.319 199.39C252.626 199.857 253.723 200.043 254.609 199.95C257.456 199.903 260.699 198.433 264.339 195.54V168.45C264.153 167.89 263.756 167.563 263.149 167.47L259.509 167.12C259.463 166.84 259.439 166.49 259.439 166.07L268.889 166V197.78C268.983 198.947 269.356 199.53 270.009 199.53L274.209 199.74L274.139 200.79C271.899 201.163 269.566 201.35 267.139 201.35C266.579 201.303 265.973 201 265.319 200.44C264.666 199.833 264.339 199.087 264.339 198.2V196.94C260.093 199.787 256.079 201.21 252.299 201.21C250.713 201.21 248.846 200.813 246.699 200.02C245.299 199.507 244.179 198.55 243.339 197.15C242.499 195.703 242.079 193.907 242.079 191.76V168.52C242.079 168.287 241.939 168.077 241.659 167.89C241.426 167.657 241.169 167.517 240.889 167.47L237.249 167.12ZM289.705 168.87V174.47C293.392 169.057 297.009 166.303 300.555 166.21C300.835 166.21 301.115 166.21 301.395 166.21L305.315 166.7L303.495 170.9C302.609 170.013 301.465 169.57 300.065 169.57C296.659 169.617 293.205 171.88 289.705 176.36V199.6L295.655 199.95C295.655 199.997 295.632 200.347 295.585 201L280.885 201.07C280.885 200.65 280.909 200.323 280.955 200.09L284.595 199.6C284.969 199.553 285.155 199.227 285.155 198.62V168.24C285.062 167.913 284.922 167.75 284.735 167.75L280.535 167.61L280.605 166.63C283.125 166.21 285.039 166 286.345 166C287.652 166 288.539 166.303 289.005 166.91C289.472 167.517 289.705 168.17 289.705 168.87Z" fill="#222222"/>
<path d="M340.031 178.344C339.64 177.497 339.315 176.814 339.054 176.293C338.859 175.772 338.761 175.154 338.761 174.438C338.761 173.852 338.826 173.331 338.957 172.875C339.152 172.354 339.25 171.801 339.25 171.215C339.25 169.783 339.184 168.448 339.054 167.211C338.989 165.974 338.891 164.607 338.761 163.109C338.696 162.914 338.468 162.751 338.078 162.621C337.687 162.491 337.264 162.328 336.808 162.133C336.352 161.872 335.929 161.514 335.539 161.059C335.213 160.603 335.05 159.952 335.05 159.105C335.05 158.324 335.213 157.673 335.539 157.152C335.929 156.566 336.32 156.046 336.71 155.59C337.101 155.069 337.459 154.548 337.785 154.027C338.175 153.441 338.371 152.758 338.371 151.977C338.371 151.651 338.338 151.065 338.273 150.219C338.208 149.307 338.143 148.363 338.078 147.387C338.078 146.41 338.045 145.499 337.98 144.652C337.98 143.741 337.98 143.122 337.98 142.797V142.602V142.406C338.24 141.82 338.436 141.332 338.566 140.941C338.761 140.551 338.957 140.258 339.152 140.062C339.347 139.867 339.608 139.737 339.933 139.672C340.259 139.542 340.682 139.477 341.203 139.477C342.57 139.477 343.579 139.737 344.23 140.258C344.881 140.779 345.337 141.397 345.597 142.113C345.858 142.764 346.02 143.383 346.085 143.969C346.151 144.555 346.313 144.88 346.574 144.945L353.605 138.793H353.996C356.274 137.296 358.683 136.156 361.222 135.375C363.761 134.529 366.431 134.105 369.23 134.105C370.076 134.105 371.085 134.203 372.257 134.398C373.494 134.594 374.634 134.952 375.675 135.473C376.782 135.928 377.694 136.547 378.41 137.328C379.191 138.109 379.582 139.086 379.582 140.258C379.582 141.56 379.419 142.895 379.093 144.262C378.768 145.629 378.312 146.996 377.726 148.363C377.205 149.665 376.554 150.935 375.773 152.172C375.057 153.344 374.276 154.353 373.429 155.199C373.104 155.915 371.02 157.738 367.179 160.668C363.338 163.598 357.609 167.96 349.992 173.754L396.867 176.684C397.518 176.749 398.397 176.814 399.503 176.879C400.675 176.879 401.782 176.977 402.824 177.172C403.931 177.367 404.875 177.758 405.656 178.344C406.437 178.865 406.828 179.678 406.828 180.785C406.828 181.371 406.73 181.859 406.535 182.25C406.404 182.576 406.209 182.868 405.949 183.129C405.753 183.324 405.493 183.52 405.167 183.715C404.907 183.91 404.647 184.171 404.386 184.496H402.726H401.066C399.764 184.366 398.397 184.203 396.964 184.008C395.597 183.812 393.97 183.585 392.082 183.324C390.259 183.064 388.11 182.803 385.636 182.543C383.162 182.283 380.2 182.055 376.75 181.859C373.299 181.664 369.263 181.501 364.64 181.371C360.083 181.241 354.777 181.176 348.722 181.176C348.657 181.176 348.559 181.273 348.429 181.469C348.364 181.664 348.332 181.827 348.332 181.957C348.332 184.431 348.527 186.872 348.917 189.281C349.373 191.625 349.601 193.969 349.601 196.312C349.601 196.768 349.536 197.289 349.406 197.875C349.341 198.396 349.178 198.917 348.917 199.438C348.657 199.893 348.332 200.284 347.941 200.609C347.55 200.935 347.062 201.098 346.476 201.098C346.085 201.098 345.63 201.033 345.109 200.902C344.588 200.707 344.067 200.447 343.546 200.121C343.091 199.796 342.667 199.438 342.277 199.047C341.886 198.656 341.658 198.201 341.593 197.68L340.031 178.344ZM346.574 156.762C346.574 158.389 346.606 159.919 346.671 161.352C346.736 162.784 346.834 164.346 346.964 166.039H347.257C347.322 166.039 347.485 165.974 347.746 165.844C348.006 165.714 348.657 165.323 349.699 164.672C350.74 163.956 352.335 162.882 354.484 161.449C356.632 159.952 359.66 157.868 363.566 155.199C364.347 154.743 365.194 153.962 366.105 152.855C367.016 151.749 367.863 150.544 368.644 149.242C369.425 147.94 370.076 146.671 370.597 145.434C371.118 144.132 371.378 143.057 371.378 142.211C371.378 141.56 371.053 141.234 370.402 141.234C369.816 141.234 369.295 141.234 368.839 141.234C367.863 141.234 366.756 141.397 365.519 141.723C364.282 142.048 362.785 142.699 361.027 143.676C359.334 144.652 357.283 146.052 354.875 147.875C352.531 149.698 349.764 152.139 346.574 155.199V156.762ZM438.613 187.23C437.897 188.598 437.018 190.128 435.976 191.82C435 193.513 433.828 195.141 432.46 196.703C431.158 198.201 429.726 199.47 428.164 200.512C426.666 201.553 425.039 202.074 423.281 202.074C421.067 202.074 419.309 201.423 418.007 200.121C416.705 198.819 415.696 197.224 414.98 195.336C414.329 193.383 413.906 191.365 413.71 189.281C413.515 187.133 413.417 185.212 413.417 183.52V180.98C413.483 180.46 413.548 179.678 413.613 178.637C413.743 177.595 413.873 176.423 414.003 175.121C414.199 173.754 414.361 172.354 414.492 170.922C414.622 169.424 414.752 168.025 414.882 166.723C415.078 165.355 415.208 164.151 415.273 163.109C415.403 162.068 415.501 161.286 415.566 160.766C415.306 160.115 415.208 159.464 415.273 158.812C415.403 158.096 415.631 157.478 415.957 156.957C416.347 156.371 416.835 155.915 417.421 155.59C418.007 155.199 418.658 155.004 419.375 155.004C419.57 155.004 419.895 155.069 420.351 155.199C420.872 155.329 421.393 155.525 421.914 155.785C422.434 156.046 422.89 156.339 423.281 156.664C423.671 156.924 423.867 157.185 423.867 157.445V161.156C422.955 168.188 422.369 173.786 422.109 177.953C421.848 182.12 421.751 185.375 421.816 187.719C421.881 189.997 422.076 191.56 422.402 192.406C422.727 193.253 423.053 193.839 423.378 194.164C424.16 194.49 424.908 194.587 425.625 194.457C426.406 194.262 427.317 193.643 428.359 192.602C429.401 191.56 430.638 189.965 432.07 187.816C433.567 185.603 435.358 182.673 437.441 179.027C437.571 178.832 437.701 178.474 437.832 177.953C438.027 177.432 438.157 177.074 438.222 176.879C438.092 172.582 438.059 168.253 438.125 163.891C438.255 159.529 438.417 155.199 438.613 150.902C438.873 150.251 439.296 149.73 439.882 149.34C440.468 148.949 441.087 148.754 441.738 148.754C441.998 148.754 442.389 148.852 442.91 149.047C443.431 149.242 443.951 149.535 444.472 149.926C444.993 150.251 445.449 150.609 445.839 151C446.23 151.391 446.425 151.781 446.425 152.172V180.98C446.881 183.91 447.239 186.872 447.5 189.867C447.76 192.797 448.118 195.727 448.574 198.656C448.574 198.982 448.639 199.665 448.769 200.707C448.964 201.684 449.16 202.758 449.355 203.93C449.55 205.102 449.713 206.176 449.843 207.152C450.039 208.129 450.169 208.747 450.234 209.008V210.18C450.234 212.523 448.964 213.793 446.425 213.988C445.319 214.118 444.375 213.63 443.593 212.523C442.877 211.482 442.291 210.082 441.835 208.324C441.38 206.632 440.989 204.711 440.664 202.562C440.403 200.414 440.175 198.331 439.98 196.312C439.785 194.294 439.589 192.471 439.394 190.844C439.199 189.151 438.938 187.947 438.613 187.23ZM455.945 185.863C455.945 180.85 456.01 175.87 456.14 170.922C456.335 165.974 456.433 160.961 456.433 155.883C456.433 152.953 456.27 150.023 455.945 147.094C455.684 144.164 455.554 141.234 455.554 138.305C455.554 137.393 455.815 136.612 456.335 135.961C456.921 135.31 457.67 134.984 458.582 134.984C460.144 134.984 461.316 135.31 462.097 135.961C462.878 136.612 463.432 137.426 463.757 138.402C464.083 139.379 464.246 140.486 464.246 141.723C464.246 142.96 464.246 144.164 464.246 145.336C464.246 145.596 464.246 146.247 464.246 147.289C464.311 148.331 464.376 149.47 464.441 150.707C464.506 151.879 464.539 152.986 464.539 154.027C464.604 155.069 464.636 155.72 464.636 155.98V159.203C464.636 163.435 464.571 167.634 464.441 171.801C464.311 175.967 464.246 180.199 464.246 184.496V188.598C464.246 188.923 464.278 189.379 464.343 189.965C464.473 190.486 464.571 190.746 464.636 190.746H465.417L488.562 181.566C489.083 181.111 489.539 180.883 489.929 180.883C490.32 180.818 490.776 180.785 491.296 180.785C491.622 180.785 492.045 180.818 492.566 180.883C493.087 180.883 493.575 180.98 494.031 181.176C494.552 181.306 494.975 181.534 495.3 181.859C495.691 182.12 495.886 182.543 495.886 183.129C495.886 184.626 495.072 185.928 493.445 187.035C491.361 188.142 489.213 189.184 487 190.16C484.786 191.072 482.54 191.82 480.261 192.406L479.773 192.797C476.648 193.643 473.718 194.88 470.984 196.508C468.315 198.135 465.515 199.633 462.585 201H461.707C459.949 201 458.647 200.414 457.8 199.242C456.954 198.07 456.401 196.703 456.14 195.141C455.88 193.513 455.782 191.853 455.847 190.16C455.912 188.402 455.945 186.97 455.945 185.863ZM506.089 198.852C505.438 196.247 504.95 193.806 504.625 191.527C504.299 189.184 504.071 186.71 503.941 184.105C503.876 182.608 503.876 181.339 503.941 180.297C504.006 179.19 503.876 177.986 503.55 176.684C503.485 176.423 503.322 176.228 503.062 176.098C502.867 175.967 502.639 175.805 502.378 175.609C502.183 175.414 501.988 175.186 501.792 174.926C501.597 174.6 501.5 174.112 501.5 173.461C501.5 172.94 501.597 172.484 501.792 172.094C502.053 171.703 502.281 171.345 502.476 171.02C502.736 170.629 502.964 170.238 503.16 169.848C503.42 169.392 503.55 168.871 503.55 168.285V166.82C503.55 166.169 503.485 165.062 503.355 163.5C503.225 161.938 503.095 160.277 502.964 158.52C502.834 156.762 502.704 155.102 502.574 153.539C502.509 151.977 502.444 150.902 502.378 150.316C502.313 149.21 502.02 148.233 501.5 147.387C500.979 146.54 500.718 145.564 500.718 144.457C500.718 142.374 501.141 140.909 501.988 140.062C502.834 139.216 504.332 138.793 506.48 138.793C506.936 138.793 507.294 138.988 507.554 139.379C507.88 139.77 508.238 139.965 508.628 139.965H509.019C509.214 139.9 509.507 139.835 509.898 139.77C510.289 139.639 510.549 139.574 510.679 139.574C516.148 137.23 520.412 135.408 523.472 134.105C526.532 132.803 528.843 131.859 530.406 131.273C531.968 130.688 533.01 130.362 533.531 130.297C534.117 130.232 534.605 130.297 534.996 130.492C535.777 130.622 536.298 130.883 536.558 131.273C536.884 131.599 537.046 132.12 537.046 132.836C537.046 133.487 536.949 134.138 536.753 134.789C536.558 135.44 536.102 135.928 535.386 136.254L522.593 142.406L522.203 142.797L511.46 147.387C511.07 147.517 510.842 147.842 510.777 148.363C510.712 148.884 510.679 149.307 510.679 149.633C510.679 150.154 510.744 151.098 510.875 152.465C511.005 153.832 511.135 155.264 511.265 156.762C511.395 158.194 511.526 159.496 511.656 160.668C511.851 161.775 511.981 162.328 512.046 162.328H512.144C512.144 162.328 512.177 162.296 512.242 162.23C512.958 161.71 514.097 160.831 515.66 159.594C517.222 158.292 518.817 156.99 520.445 155.688C522.072 154.385 523.505 153.246 524.742 152.27C525.979 151.228 526.63 150.707 526.695 150.707C527.411 150.707 528.062 151.065 528.648 151.781C529.234 152.497 529.527 153.246 529.527 154.027C529.527 154.809 529.364 155.688 529.039 156.664C528.713 157.641 528.192 158.389 527.476 158.91L512.242 172.484C512.242 172.484 512.242 172.647 512.242 172.973C512.242 173.298 512.209 173.656 512.144 174.047C512.144 174.438 512.144 174.861 512.144 175.316C512.144 175.707 512.144 176.033 512.144 176.293C512.144 178.637 512.307 180.98 512.632 183.324C512.958 185.603 513.121 187.914 513.121 190.258H513.511C513.576 190.258 513.869 189.997 514.39 189.477C514.911 188.956 515.302 188.533 515.562 188.207C515.692 188.012 515.985 187.589 516.441 186.938C516.962 186.286 517.808 185.212 518.98 183.715C520.152 182.217 521.714 180.232 523.667 177.758C525.621 175.284 528.127 172.159 531.187 168.383C531.447 168.122 531.806 167.732 532.261 167.211C532.782 166.69 533.108 166.43 533.238 166.43C533.433 166.234 533.824 166.169 534.41 166.234C535.061 166.234 535.516 166.299 535.777 166.43C536.102 166.56 536.526 166.918 537.046 167.504C537.567 168.09 537.828 168.643 537.828 169.164C537.828 169.945 537.404 170.987 536.558 172.289C535.777 173.526 534.833 174.828 533.726 176.195C532.619 177.562 531.513 178.897 530.406 180.199C529.299 181.436 528.453 182.445 527.867 183.227C526.955 184.659 525.848 186.417 524.546 188.5C523.309 190.518 521.942 192.471 520.445 194.359C518.947 196.182 517.287 197.777 515.464 199.145C513.707 200.447 511.819 201.098 509.8 201.098C508.824 201.098 508.108 200.935 507.652 200.609C507.261 200.284 506.74 199.698 506.089 198.852ZM558.578 197.484C559.619 196.052 560.759 194.978 561.996 194.262C563.298 193.546 564.6 192.96 565.902 192.504C567.269 192.048 568.604 191.625 569.906 191.234C571.273 190.779 572.608 190.062 573.91 189.086C574.626 188.695 575.635 188.109 576.937 187.328C578.239 186.547 579.509 185.701 580.746 184.789C582.048 183.812 583.154 182.868 584.066 181.957C585.042 181.046 585.531 180.264 585.531 179.613C585.531 179.548 585.498 179.516 585.433 179.516C585.303 179.516 585.238 179.483 585.238 179.418L585.042 179.223C584.717 179.092 584.196 178.93 583.48 178.734C582.764 178.539 582.341 178.409 582.21 178.344C573.812 177.367 567.041 176.521 561.898 175.805C556.82 175.023 552.881 174.21 550.082 173.363C547.347 172.517 545.524 171.54 544.613 170.434C543.701 169.327 543.246 167.927 543.246 166.234C543.246 165.583 543.376 164.867 543.636 164.086C543.897 163.305 544.19 162.523 544.515 161.742C544.906 160.961 545.296 160.245 545.687 159.594C546.078 158.943 546.436 158.422 546.761 158.031C547.803 156.729 549.17 155.557 550.863 154.516C552.556 153.474 554.378 152.562 556.332 151.781C558.285 151 560.238 150.316 562.191 149.73C564.209 149.145 566.032 148.624 567.66 148.168C569.483 148.038 571.306 147.615 573.128 146.898C575.016 146.117 576.872 145.596 578.695 145.336C579.606 145.336 580.355 145.694 580.941 146.41C581.527 147.126 581.82 147.875 581.82 148.656C581.82 149.763 581.592 150.609 581.136 151.195C580.746 151.716 580.192 152.139 579.476 152.465C578.825 152.725 578.076 152.953 577.23 153.148C576.384 153.279 575.537 153.441 574.691 153.637C574.17 153.767 573.454 153.962 572.542 154.223C571.631 154.418 570.72 154.646 569.808 154.906C568.897 155.167 568.083 155.395 567.367 155.59C566.651 155.785 566.227 155.915 566.097 155.98C564.079 156.827 562.158 157.641 560.335 158.422C558.578 159.138 557.015 159.887 555.648 160.668C554.346 161.449 553.304 162.296 552.523 163.207C551.807 164.053 551.481 164.997 551.546 166.039V166.137C552.197 167.048 553.662 167.732 555.941 168.188C558.22 168.643 560.889 169.034 563.949 169.359C567.074 169.685 570.329 170.01 573.714 170.336C577.165 170.661 580.322 171.15 583.187 171.801C586.052 172.452 588.428 173.331 590.316 174.438C592.204 175.544 593.181 177.042 593.246 178.93C593.246 179.646 593.083 180.492 592.757 181.469C592.497 182.445 592.106 183.194 591.585 183.715C589.958 185.538 588.005 187.426 585.726 189.379C583.513 191.332 581.104 193.155 578.5 194.848C575.895 196.475 573.194 197.875 570.394 199.047C567.66 200.154 564.958 200.805 562.289 201C561.377 201 560.531 200.674 559.75 200.023C558.968 199.307 558.578 198.461 558.578 197.484Z" fill="#81D8D1"/>
</svg>
