<svg width="199" height="79" viewBox="0 0 199 79" fill="none" xmlns="http://www.w3.org/2000/svg">
<path d="M5.95 31.525C7.18333 31.525 8.26667 31.1667 9.2 30.45C10.1333 29.7167 10.6 28.6083 10.6 27.125C10.6 26.4583 10.4333 25.8917 10.1 25.425C9.78333 24.9417 9.35833 24.575 8.825 24.325C8.29167 24.0583 7.70833 23.8333 7.075 23.65C6.44167 23.45 5.80833 23.2417 5.175 23.025C4.54167 22.8083 3.95833 22.55 3.425 22.25C2.89167 21.95 2.45833 21.525 2.125 20.975C1.80833 20.425 1.65 19.7667 1.65 19C1.65 17.6667 2.10833 16.575 3.025 15.725C3.94167 14.875 5.16667 14.45 6.7 14.45C8.23333 14.45 9.7 14.625 11.1 14.975L11.375 18.1L10.9 18.3L10.65 16.325C9.41667 15.4083 8.25833 14.95 7.175 14.95C6.09167 14.95 5.18333 15.2833 4.45 15.95C3.71667 16.6 3.35 17.5833 3.35 18.9C3.35 19.6667 3.65833 20.275 4.275 20.725C4.89167 21.175 5.63333 21.525 6.5 21.775C7.38333 22.025 8.25833 22.3083 9.125 22.625C10.0083 22.9417 10.7583 23.475 11.375 24.225C11.9917 24.975 12.3 25.95 12.3 27.15C12.3 28.7667 11.725 29.9833 10.575 30.8C9.425 31.6167 7.90833 32.025 6.025 32.025C4.14167 32.025 2.50833 31.5167 1.125 30.5L1.15 27.85L1.625 27.725L1.675 29.15C2.125 29.7833 2.74167 30.3417 3.525 30.825C4.30833 31.2917 5.11667 31.525 5.95 31.525ZM14.0895 14.875L14.1145 14.5H24.8145L24.7895 14.575L25.1145 18.1L24.6145 18.3L24.2145 15H17.4145V23.075H23.3895C23.4728 23.0917 23.5478 23.075 23.6145 23.025C23.6811 22.9583 23.7145 22.875 23.7145 22.775L23.8145 21.05L24.2145 21V25.275C24.1978 25.275 24.0728 25.2833 23.8395 25.3L23.7395 23.575H17.4145V31.5H24.8895L25.3645 27.5L25.8395 27.625L25.4645 32H19.1145L14.0895 32.025L14.1145 31.675L15.4145 31.5C15.5811 31.4833 15.6811 31.375 15.7145 31.175V15.35C15.6811 15.15 15.5811 15.0417 15.4145 15.025L14.0895 14.875ZM27.3707 14.875L27.3957 14.5H38.0957L38.0707 14.575L38.3957 18.1L37.8957 18.3L37.4957 15H30.6957V23.075H36.6707C36.754 23.0917 36.829 23.075 36.8957 23.025C36.9624 22.9583 36.9957 22.875 36.9957 22.775L37.0957 21.05L37.4957 21V25.275C37.479 25.275 37.354 25.2833 37.1207 25.3L37.0207 23.575H30.6957V31.5H38.1707L38.6457 27.5L39.1207 27.625L38.7457 32H32.3957L27.3707 32.025L27.3957 31.675L28.6957 31.5C28.8624 31.4833 28.9624 31.375 28.9957 31.175V15.35C28.9624 15.15 28.8624 15.0417 28.6957 15.025L27.3707 14.875Z" fill="#222222"/>
<path d="M49.95 47.875L49.975 47.5H53.275L59.25 60.175L65.125 47.5H68.425C68.425 47.5333 68.4333 47.5917 68.45 47.675C68.4667 47.7583 68.4667 47.825 68.45 47.875L67.125 48.025C66.9583 48.0417 66.8583 48.15 66.825 48.35V64.525L68.675 64.625C68.675 64.6417 68.6667 64.7667 68.65 65L63.625 65.025L63.65 64.675L64.95 64.5C65.1167 64.4833 65.2167 64.3833 65.25 64.2V48.4L59.55 60.725L59.05 61.725H58.475L52.15 48.375V64.475L55 64.625C55 64.6417 54.9917 64.7667 54.975 65L49.95 65.025L49.975 64.675L51.275 64.5C51.4417 64.4833 51.5417 64.375 51.575 64.175V48.35C51.5417 48.15 51.4417 48.0417 51.275 48.025L49.95 47.875ZM70.2881 56.3C70.2881 53.55 70.9881 51.3583 72.3881 49.725C73.8048 48.0917 75.5631 47.275 77.6631 47.275C82.5798 47.275 85.0381 50.2833 85.0381 56.3C85.0381 59.0667 84.3381 61.25 82.9381 62.85C81.5381 64.4333 79.7798 65.225 77.6631 65.225C72.7464 65.225 70.2881 62.25 70.2881 56.3ZM71.9881 56.25C71.9881 61.9 73.8798 64.725 77.6631 64.725C79.2964 64.725 80.6464 63.975 81.7131 62.475C82.7964 60.975 83.3381 58.9 83.3381 56.25C83.3381 50.6 81.4464 47.775 77.6631 47.775C76.0464 47.775 74.6964 48.5333 73.6131 50.05C72.5298 51.5667 71.9881 53.6333 71.9881 56.25ZM86.7229 47.875L86.7479 47.5H92.8229C94.5395 47.5 95.8645 47.875 96.7979 48.625C97.7312 49.375 98.1979 50.4917 98.1979 51.975C98.1979 52.9417 97.8229 53.95 97.0729 55C96.3395 56.05 95.6479 56.725 94.9979 57.025L99.6229 64.55L100.848 64.625C100.848 64.6417 100.84 64.7667 100.823 65L98.0979 65.025L93.3479 57.325H90.0229V64.525L91.7729 64.625C91.7729 64.6417 91.7645 64.7667 91.7479 65L86.7229 65.025L86.7479 64.675L88.0479 64.5C88.1645 64.4833 88.2562 64.4083 88.3229 64.275V48.275C88.2729 48.125 88.1812 48.0417 88.0479 48.025L86.7229 47.875ZM92.6979 47.875H90.0229V56.95H94.2979C95.1645 55.9667 95.7479 55.1 96.0479 54.35C96.3479 53.5833 96.4979 52.8417 96.4979 52.125C96.4979 50.725 96.1729 49.6667 95.5229 48.95C94.8729 48.2333 93.9312 47.875 92.6979 47.875ZM102.25 47.875L102.275 47.5H112.975L112.95 47.575L113.275 51.1L112.775 51.3L112.375 48H105.575V56.075H111.55C111.633 56.0917 111.708 56.075 111.775 56.025C111.841 55.9583 111.875 55.875 111.875 55.775L111.975 54.05L112.375 54V58.275C112.358 58.275 112.233 58.2833 112 58.3L111.9 56.575H105.575V64.5H113.05L113.525 60.5L114 60.625L113.625 65H107.275L102.25 65.025L102.275 64.675L103.575 64.5C103.741 64.4833 103.841 64.375 103.875 64.175V48.35C103.841 48.15 103.741 48.0417 103.575 48.025L102.25 47.875Z" fill="#222222"/>
<circle cx="159.5" cy="39.5" r="38.85" stroke="#222222" stroke-width="1.3"/>
<path d="M165.707 40.7071C166.098 40.3166 166.098 39.6834 165.707 39.2929L159.343 32.9289C158.953 32.5384 158.319 32.5384 157.929 32.9289C157.538 33.3195 157.538 33.9526 157.929 34.3432L163.586 40L157.929 45.6569C157.538 46.0474 157.538 46.6806 157.929 47.0711C158.319 47.4616 158.953 47.4616 159.343 47.0711L165.707 40.7071ZM-8.74228e-08 41L165 41L165 39L8.74228e-08 39L-8.74228e-08 41Z" fill="#222222"/>
</svg>
