<svg width="461" height="228" viewBox="0 0 461 228" fill="none" xmlns="http://www.w3.org/2000/svg">
<path d="M44.03 165C44.03 165.047 44.0533 165.397 44.1 166.05L40.11 166.4L25.13 197.48V212.67L30.24 212.95C30.24 212.997 30.2167 213.347 30.17 214L16.17 214.07C16.17 213.65 16.1933 213.323 16.24 213.09L19.88 212.6C20.3467 212.553 20.6267 212.25 20.72 211.69V197.48L4.97 166.75C4.78333 166.61 4.59667 166.493 4.41 166.4L1.47 166.12C1.42333 165.84 1.4 165.49 1.4 165.07L15.54 165C15.54 165.047 15.5633 165.397 15.61 166.05L9.87 166.54L24.36 196.29L37.45 167.59C37.45 167.03 37.24 166.727 36.82 166.68L30.45 166.12C30.4033 165.84 30.38 165.49 30.38 165.07L44.03 165ZM65.9772 214.28C61.1239 214.28 57.1805 212.88 54.1472 210.08C51.1605 207.28 49.6672 203.01 49.6672 197.27C49.6672 191.483 51.2539 186.957 54.4272 183.69C57.6472 180.377 61.6839 178.72 66.5372 178.72C71.3905 178.72 75.3339 180.12 78.3672 182.92C81.4005 185.72 82.9172 190.013 82.9172 195.8C82.9172 201.54 81.3072 206.067 78.0872 209.38C74.9139 212.647 70.8772 214.28 65.9772 214.28ZM66.4672 179.98C62.9672 179.98 60.0505 181.497 57.7172 184.53C55.3839 187.563 54.2172 191.693 54.2172 196.92C54.2172 202.1 55.3139 206.09 57.5072 208.89C59.7472 211.643 62.6172 213.02 66.1172 213.02C69.6172 213.02 72.5339 211.503 74.8672 208.47C77.2005 205.437 78.3672 201.33 78.3672 196.15C78.3672 190.97 77.2472 186.98 75.0072 184.18C72.8139 181.38 69.9672 179.98 66.4672 179.98ZM89.3747 180.12L89.3047 179.07L98.7547 179V203.36C98.7547 205.18 99.0114 206.767 99.5247 208.12C100.038 209.427 100.598 210.383 101.205 210.99C101.858 211.597 102.605 212.063 103.445 212.39C104.751 212.857 105.848 213.043 106.735 212.95C109.581 212.903 112.825 211.433 116.465 208.54V181.45C116.278 180.89 115.881 180.563 115.275 180.47L111.635 180.12C111.588 179.84 111.565 179.49 111.565 179.07L121.015 179V210.78C121.108 211.947 121.481 212.53 122.135 212.53L126.335 212.74L126.265 213.79C124.025 214.163 121.691 214.35 119.265 214.35C118.705 214.303 118.098 214 117.445 213.44C116.791 212.833 116.465 212.087 116.465 211.2V209.94C112.218 212.787 108.205 214.21 104.425 214.21C102.838 214.21 100.971 213.813 98.8247 213.02C97.4247 212.507 96.3047 211.55 95.4647 210.15C94.6247 208.703 94.2047 206.907 94.2047 204.76V181.52C94.2047 181.287 94.0647 181.077 93.7847 180.89C93.5514 180.657 93.2947 180.517 93.0147 180.47L89.3747 180.12ZM141.831 181.87V187.47C145.518 182.057 149.134 179.303 152.681 179.21C152.961 179.21 153.241 179.21 153.521 179.21L157.441 179.7L155.621 183.9C154.734 183.013 153.591 182.57 152.191 182.57C148.784 182.617 145.331 184.88 141.831 189.36V212.6L147.781 212.95C147.781 212.997 147.758 213.347 147.711 214L133.011 214.07C133.011 213.65 133.034 213.323 133.081 213.09L136.721 212.6C137.094 212.553 137.281 212.227 137.281 211.62V181.24C137.188 180.913 137.048 180.75 136.861 180.75L132.661 180.61L132.731 179.63C135.251 179.21 137.164 179 138.471 179C139.778 179 140.664 179.303 141.131 179.91C141.598 180.517 141.831 181.17 141.831 181.87Z" fill="#222222"/>
<path d="M192.156 191.344C191.766 190.497 191.44 189.814 191.18 189.293C190.984 188.772 190.887 188.154 190.887 187.438C190.887 186.852 190.952 186.331 191.082 185.875C191.277 185.354 191.375 184.801 191.375 184.215C191.375 182.783 191.31 181.448 191.18 180.211C191.115 178.974 191.017 177.607 190.887 176.109C190.822 175.914 190.594 175.751 190.203 175.621C189.812 175.491 189.389 175.328 188.934 175.133C188.478 174.872 188.055 174.514 187.664 174.059C187.339 173.603 187.176 172.952 187.176 172.105C187.176 171.324 187.339 170.673 187.664 170.152C188.055 169.566 188.445 169.046 188.836 168.59C189.227 168.069 189.585 167.548 189.91 167.027C190.301 166.441 190.496 165.758 190.496 164.977C190.496 164.651 190.464 164.065 190.398 163.219C190.333 162.307 190.268 161.363 190.203 160.387C190.203 159.41 190.171 158.499 190.105 157.652C190.105 156.741 190.105 156.122 190.105 155.797V155.602V155.406C190.366 154.82 190.561 154.332 190.691 153.941C190.887 153.551 191.082 153.258 191.277 153.062C191.473 152.867 191.733 152.737 192.059 152.672C192.384 152.542 192.807 152.477 193.328 152.477C194.695 152.477 195.704 152.737 196.355 153.258C197.007 153.779 197.462 154.397 197.723 155.113C197.983 155.764 198.146 156.383 198.211 156.969C198.276 157.555 198.439 157.88 198.699 157.945L205.73 151.793H206.121C208.4 150.296 210.809 149.156 213.348 148.375C215.887 147.529 218.556 147.105 221.355 147.105C222.202 147.105 223.211 147.203 224.383 147.398C225.62 147.594 226.759 147.952 227.801 148.473C228.908 148.928 229.819 149.547 230.535 150.328C231.316 151.109 231.707 152.086 231.707 153.258C231.707 154.56 231.544 155.895 231.219 157.262C230.893 158.629 230.438 159.996 229.852 161.363C229.331 162.665 228.68 163.935 227.898 165.172C227.182 166.344 226.401 167.353 225.555 168.199C225.229 168.915 223.146 170.738 219.305 173.668C215.464 176.598 209.734 180.96 202.117 186.754L248.992 189.684C249.643 189.749 250.522 189.814 251.629 189.879C252.801 189.879 253.908 189.977 254.949 190.172C256.056 190.367 257 190.758 257.781 191.344C258.562 191.865 258.953 192.678 258.953 193.785C258.953 194.371 258.855 194.859 258.66 195.25C258.53 195.576 258.335 195.868 258.074 196.129C257.879 196.324 257.618 196.52 257.293 196.715C257.033 196.91 256.772 197.171 256.512 197.496H254.852H253.191C251.889 197.366 250.522 197.203 249.09 197.008C247.723 196.812 246.095 196.585 244.207 196.324C242.384 196.064 240.236 195.803 237.762 195.543C235.288 195.283 232.326 195.055 228.875 194.859C225.424 194.664 221.388 194.501 216.766 194.371C212.208 194.241 206.902 194.176 200.848 194.176C200.783 194.176 200.685 194.273 200.555 194.469C200.49 194.664 200.457 194.827 200.457 194.957C200.457 197.431 200.652 199.872 201.043 202.281C201.499 204.625 201.727 206.969 201.727 209.312C201.727 209.768 201.661 210.289 201.531 210.875C201.466 211.396 201.303 211.917 201.043 212.438C200.783 212.893 200.457 213.284 200.066 213.609C199.676 213.935 199.188 214.098 198.602 214.098C198.211 214.098 197.755 214.033 197.234 213.902C196.714 213.707 196.193 213.447 195.672 213.121C195.216 212.796 194.793 212.438 194.402 212.047C194.012 211.656 193.784 211.201 193.719 210.68L192.156 191.344ZM198.699 169.762C198.699 171.389 198.732 172.919 198.797 174.352C198.862 175.784 198.96 177.346 199.09 179.039H199.383C199.448 179.039 199.611 178.974 199.871 178.844C200.132 178.714 200.783 178.323 201.824 177.672C202.866 176.956 204.461 175.882 206.609 174.449C208.758 172.952 211.785 170.868 215.691 168.199C216.473 167.743 217.319 166.962 218.23 165.855C219.142 164.749 219.988 163.544 220.77 162.242C221.551 160.94 222.202 159.671 222.723 158.434C223.243 157.132 223.504 156.057 223.504 155.211C223.504 154.56 223.178 154.234 222.527 154.234C221.941 154.234 221.421 154.234 220.965 154.234C219.988 154.234 218.882 154.397 217.645 154.723C216.408 155.048 214.91 155.699 213.152 156.676C211.46 157.652 209.409 159.052 207 160.875C204.656 162.698 201.889 165.139 198.699 168.199V169.762ZM290.738 200.23C290.022 201.598 289.143 203.128 288.102 204.82C287.125 206.513 285.953 208.141 284.586 209.703C283.284 211.201 281.852 212.47 280.289 213.512C278.792 214.553 277.164 215.074 275.406 215.074C273.193 215.074 271.435 214.423 270.133 213.121C268.831 211.819 267.822 210.224 267.105 208.336C266.454 206.383 266.031 204.365 265.836 202.281C265.641 200.133 265.543 198.212 265.543 196.52V193.98C265.608 193.46 265.673 192.678 265.738 191.637C265.868 190.595 265.999 189.423 266.129 188.121C266.324 186.754 266.487 185.354 266.617 183.922C266.747 182.424 266.878 181.025 267.008 179.723C267.203 178.355 267.333 177.151 267.398 176.109C267.529 175.068 267.626 174.286 267.691 173.766C267.431 173.115 267.333 172.464 267.398 171.812C267.529 171.096 267.757 170.478 268.082 169.957C268.473 169.371 268.961 168.915 269.547 168.59C270.133 168.199 270.784 168.004 271.5 168.004C271.695 168.004 272.021 168.069 272.477 168.199C272.997 168.329 273.518 168.525 274.039 168.785C274.56 169.046 275.016 169.339 275.406 169.664C275.797 169.924 275.992 170.185 275.992 170.445V174.156C275.081 181.188 274.495 186.786 274.234 190.953C273.974 195.12 273.876 198.375 273.941 200.719C274.007 202.997 274.202 204.56 274.527 205.406C274.853 206.253 275.178 206.839 275.504 207.164C276.285 207.49 277.034 207.587 277.75 207.457C278.531 207.262 279.443 206.643 280.484 205.602C281.526 204.56 282.763 202.965 284.195 200.816C285.693 198.603 287.483 195.673 289.566 192.027C289.697 191.832 289.827 191.474 289.957 190.953C290.152 190.432 290.283 190.074 290.348 189.879C290.217 185.582 290.185 181.253 290.25 176.891C290.38 172.529 290.543 168.199 290.738 163.902C290.999 163.251 291.422 162.73 292.008 162.34C292.594 161.949 293.212 161.754 293.863 161.754C294.124 161.754 294.514 161.852 295.035 162.047C295.556 162.242 296.077 162.535 296.598 162.926C297.118 163.251 297.574 163.609 297.965 164C298.355 164.391 298.551 164.781 298.551 165.172V193.98C299.007 196.91 299.365 199.872 299.625 202.867C299.885 205.797 300.243 208.727 300.699 211.656C300.699 211.982 300.764 212.665 300.895 213.707C301.09 214.684 301.285 215.758 301.48 216.93C301.676 218.102 301.839 219.176 301.969 220.152C302.164 221.129 302.294 221.747 302.359 222.008V223.18C302.359 225.523 301.09 226.793 298.551 226.988C297.444 227.118 296.5 226.63 295.719 225.523C295.003 224.482 294.417 223.082 293.961 221.324C293.505 219.632 293.115 217.711 292.789 215.562C292.529 213.414 292.301 211.331 292.105 209.312C291.91 207.294 291.715 205.471 291.52 203.844C291.324 202.151 291.064 200.947 290.738 200.23ZM308.07 198.863C308.07 193.85 308.135 188.87 308.266 183.922C308.461 178.974 308.559 173.961 308.559 168.883C308.559 165.953 308.396 163.023 308.07 160.094C307.81 157.164 307.68 154.234 307.68 151.305C307.68 150.393 307.94 149.612 308.461 148.961C309.047 148.31 309.796 147.984 310.707 147.984C312.27 147.984 313.441 148.31 314.223 148.961C315.004 149.612 315.557 150.426 315.883 151.402C316.208 152.379 316.371 153.486 316.371 154.723C316.371 155.96 316.371 157.164 316.371 158.336C316.371 158.596 316.371 159.247 316.371 160.289C316.436 161.331 316.501 162.47 316.566 163.707C316.632 164.879 316.664 165.986 316.664 167.027C316.729 168.069 316.762 168.72 316.762 168.98V172.203C316.762 176.435 316.697 180.634 316.566 184.801C316.436 188.967 316.371 193.199 316.371 197.496V201.598C316.371 201.923 316.404 202.379 316.469 202.965C316.599 203.486 316.697 203.746 316.762 203.746H317.543L340.688 194.566C341.208 194.111 341.664 193.883 342.055 193.883C342.445 193.818 342.901 193.785 343.422 193.785C343.747 193.785 344.171 193.818 344.691 193.883C345.212 193.883 345.701 193.98 346.156 194.176C346.677 194.306 347.1 194.534 347.426 194.859C347.816 195.12 348.012 195.543 348.012 196.129C348.012 197.626 347.198 198.928 345.57 200.035C343.487 201.142 341.339 202.184 339.125 203.16C336.911 204.072 334.665 204.82 332.387 205.406L331.898 205.797C328.773 206.643 325.844 207.88 323.109 209.508C320.44 211.135 317.641 212.633 314.711 214H313.832C312.074 214 310.772 213.414 309.926 212.242C309.079 211.07 308.526 209.703 308.266 208.141C308.005 206.513 307.908 204.853 307.973 203.16C308.038 201.402 308.07 199.97 308.07 198.863ZM358.215 211.852C357.564 209.247 357.076 206.806 356.75 204.527C356.424 202.184 356.197 199.71 356.066 197.105C356.001 195.608 356.001 194.339 356.066 193.297C356.132 192.19 356.001 190.986 355.676 189.684C355.611 189.423 355.448 189.228 355.188 189.098C354.992 188.967 354.764 188.805 354.504 188.609C354.309 188.414 354.113 188.186 353.918 187.926C353.723 187.6 353.625 187.112 353.625 186.461C353.625 185.94 353.723 185.484 353.918 185.094C354.178 184.703 354.406 184.345 354.602 184.02C354.862 183.629 355.09 183.238 355.285 182.848C355.546 182.392 355.676 181.871 355.676 181.285V179.82C355.676 179.169 355.611 178.062 355.48 176.5C355.35 174.938 355.22 173.277 355.09 171.52C354.96 169.762 354.829 168.102 354.699 166.539C354.634 164.977 354.569 163.902 354.504 163.316C354.439 162.21 354.146 161.233 353.625 160.387C353.104 159.54 352.844 158.564 352.844 157.457C352.844 155.374 353.267 153.909 354.113 153.062C354.96 152.216 356.457 151.793 358.605 151.793C359.061 151.793 359.419 151.988 359.68 152.379C360.005 152.77 360.363 152.965 360.754 152.965H361.145C361.34 152.9 361.633 152.835 362.023 152.77C362.414 152.639 362.674 152.574 362.805 152.574C368.273 150.23 372.538 148.408 375.598 147.105C378.658 145.803 380.969 144.859 382.531 144.273C384.094 143.688 385.135 143.362 385.656 143.297C386.242 143.232 386.73 143.297 387.121 143.492C387.902 143.622 388.423 143.883 388.684 144.273C389.009 144.599 389.172 145.12 389.172 145.836C389.172 146.487 389.074 147.138 388.879 147.789C388.684 148.44 388.228 148.928 387.512 149.254L374.719 155.406L374.328 155.797L363.586 160.387C363.195 160.517 362.967 160.842 362.902 161.363C362.837 161.884 362.805 162.307 362.805 162.633C362.805 163.154 362.87 164.098 363 165.465C363.13 166.832 363.26 168.264 363.391 169.762C363.521 171.194 363.651 172.496 363.781 173.668C363.977 174.775 364.107 175.328 364.172 175.328H364.27C364.27 175.328 364.302 175.296 364.367 175.23C365.083 174.71 366.223 173.831 367.785 172.594C369.348 171.292 370.943 169.99 372.57 168.688C374.198 167.385 375.63 166.246 376.867 165.27C378.104 164.228 378.755 163.707 378.82 163.707C379.536 163.707 380.188 164.065 380.773 164.781C381.359 165.497 381.652 166.246 381.652 167.027C381.652 167.809 381.49 168.688 381.164 169.664C380.839 170.641 380.318 171.389 379.602 171.91L364.367 185.484C364.367 185.484 364.367 185.647 364.367 185.973C364.367 186.298 364.335 186.656 364.27 187.047C364.27 187.438 364.27 187.861 364.27 188.316C364.27 188.707 364.27 189.033 364.27 189.293C364.27 191.637 364.432 193.98 364.758 196.324C365.083 198.603 365.246 200.914 365.246 203.258H365.637C365.702 203.258 365.995 202.997 366.516 202.477C367.036 201.956 367.427 201.533 367.688 201.207C367.818 201.012 368.111 200.589 368.566 199.938C369.087 199.286 369.934 198.212 371.105 196.715C372.277 195.217 373.84 193.232 375.793 190.758C377.746 188.284 380.253 185.159 383.312 181.383C383.573 181.122 383.931 180.732 384.387 180.211C384.908 179.69 385.233 179.43 385.363 179.43C385.559 179.234 385.949 179.169 386.535 179.234C387.186 179.234 387.642 179.299 387.902 179.43C388.228 179.56 388.651 179.918 389.172 180.504C389.693 181.09 389.953 181.643 389.953 182.164C389.953 182.945 389.53 183.987 388.684 185.289C387.902 186.526 386.958 187.828 385.852 189.195C384.745 190.562 383.638 191.897 382.531 193.199C381.424 194.436 380.578 195.445 379.992 196.227C379.081 197.659 377.974 199.417 376.672 201.5C375.435 203.518 374.068 205.471 372.57 207.359C371.073 209.182 369.413 210.777 367.59 212.145C365.832 213.447 363.944 214.098 361.926 214.098C360.949 214.098 360.233 213.935 359.777 213.609C359.387 213.284 358.866 212.698 358.215 211.852ZM410.703 210.484C411.745 209.052 412.884 207.978 414.121 207.262C415.423 206.546 416.725 205.96 418.027 205.504C419.395 205.048 420.729 204.625 422.031 204.234C423.398 203.779 424.733 203.062 426.035 202.086C426.751 201.695 427.76 201.109 429.062 200.328C430.365 199.547 431.634 198.701 432.871 197.789C434.173 196.812 435.28 195.868 436.191 194.957C437.168 194.046 437.656 193.264 437.656 192.613C437.656 192.548 437.624 192.516 437.559 192.516C437.428 192.516 437.363 192.483 437.363 192.418L437.168 192.223C436.842 192.092 436.322 191.93 435.605 191.734C434.889 191.539 434.466 191.409 434.336 191.344C425.938 190.367 419.167 189.521 414.023 188.805C408.945 188.023 405.007 187.21 402.207 186.363C399.473 185.517 397.65 184.54 396.738 183.434C395.827 182.327 395.371 180.927 395.371 179.234C395.371 178.583 395.501 177.867 395.762 177.086C396.022 176.305 396.315 175.523 396.641 174.742C397.031 173.961 397.422 173.245 397.812 172.594C398.203 171.943 398.561 171.422 398.887 171.031C399.928 169.729 401.296 168.557 402.988 167.516C404.681 166.474 406.504 165.562 408.457 164.781C410.41 164 412.363 163.316 414.316 162.73C416.335 162.145 418.158 161.624 419.785 161.168C421.608 161.038 423.431 160.615 425.254 159.898C427.142 159.117 428.997 158.596 430.82 158.336C431.732 158.336 432.48 158.694 433.066 159.41C433.652 160.126 433.945 160.875 433.945 161.656C433.945 162.763 433.717 163.609 433.262 164.195C432.871 164.716 432.318 165.139 431.602 165.465C430.951 165.725 430.202 165.953 429.355 166.148C428.509 166.279 427.663 166.441 426.816 166.637C426.296 166.767 425.579 166.962 424.668 167.223C423.757 167.418 422.845 167.646 421.934 167.906C421.022 168.167 420.208 168.395 419.492 168.59C418.776 168.785 418.353 168.915 418.223 168.98C416.204 169.827 414.284 170.641 412.461 171.422C410.703 172.138 409.141 172.887 407.773 173.668C406.471 174.449 405.43 175.296 404.648 176.207C403.932 177.053 403.607 177.997 403.672 179.039V179.137C404.323 180.048 405.788 180.732 408.066 181.188C410.345 181.643 413.014 182.034 416.074 182.359C419.199 182.685 422.454 183.01 425.84 183.336C429.29 183.661 432.448 184.15 435.312 184.801C438.177 185.452 440.553 186.331 442.441 187.438C444.329 188.544 445.306 190.042 445.371 191.93C445.371 192.646 445.208 193.492 444.883 194.469C444.622 195.445 444.232 196.194 443.711 196.715C442.083 198.538 440.13 200.426 437.852 202.379C435.638 204.332 433.229 206.155 430.625 207.848C428.021 209.475 425.319 210.875 422.52 212.047C419.785 213.154 417.083 213.805 414.414 214C413.503 214 412.656 213.674 411.875 213.023C411.094 212.307 410.703 211.461 410.703 210.484Z" fill="#81D8D1"/>
<path d="M73.03 48C73.03 48.0467 73.0533 48.3967 73.1 49.05L69.11 49.4L54.13 80.48V95.67L59.24 95.95C59.24 95.9967 59.2167 96.3467 59.17 97L45.17 97.07C45.17 96.65 45.1933 96.3233 45.24 96.09L48.88 95.6C49.3467 95.5533 49.6267 95.25 49.72 94.69V80.48L33.97 49.75C33.7833 49.61 33.5967 49.4933 33.41 49.4L30.47 49.12C30.4233 48.84 30.4 48.49 30.4 48.07L44.54 48C44.54 48.0467 44.5633 48.3967 44.61 49.05L38.87 49.54L53.36 79.29L66.45 50.59C66.45 50.03 66.24 49.7267 65.82 49.68L59.45 49.12C59.4033 48.84 59.38 48.49 59.38 48.07L73.03 48ZM94.9772 97.28C90.1239 97.28 86.1805 95.88 83.1472 93.08C80.1605 90.28 78.6672 86.01 78.6672 80.27C78.6672 74.4833 80.2539 69.9567 83.4272 66.69C86.6472 63.3767 90.6839 61.72 95.5372 61.72C100.391 61.72 104.334 63.12 107.367 65.92C110.401 68.72 111.917 73.0133 111.917 78.8C111.917 84.54 110.307 89.0667 107.087 92.38C103.914 95.6467 99.8772 97.28 94.9772 97.28ZM95.4672 62.98C91.9672 62.98 89.0505 64.4967 86.7172 67.53C84.3839 70.5633 83.2172 74.6933 83.2172 79.92C83.2172 85.1 84.3139 89.09 86.5072 91.89C88.7472 94.6433 91.6172 96.02 95.1172 96.02C98.6172 96.02 101.534 94.5033 103.867 91.47C106.201 88.4367 107.367 84.33 107.367 79.15C107.367 73.97 106.247 69.98 104.007 67.18C101.814 64.38 98.9672 62.98 95.4672 62.98ZM118.375 63.12L118.305 62.07L127.755 62V86.36C127.755 88.18 128.011 89.7667 128.525 91.12C129.038 92.4267 129.598 93.3833 130.205 93.99C130.858 94.5967 131.605 95.0633 132.445 95.39C133.751 95.8567 134.848 96.0433 135.735 95.95C138.581 95.9033 141.825 94.4333 145.465 91.54V64.45C145.278 63.89 144.881 63.5633 144.275 63.47L140.635 63.12C140.588 62.84 140.565 62.49 140.565 62.07L150.015 62V93.78C150.108 94.9467 150.481 95.53 151.135 95.53L155.335 95.74L155.265 96.79C153.025 97.1633 150.691 97.35 148.265 97.35C147.705 97.3033 147.098 97 146.445 96.44C145.791 95.8333 145.465 95.0867 145.465 94.2V92.94C141.218 95.7867 137.205 97.21 133.425 97.21C131.838 97.21 129.971 96.8133 127.825 96.02C126.425 95.5067 125.305 94.55 124.465 93.15C123.625 91.7033 123.205 89.9067 123.205 87.76V64.52C123.205 64.2867 123.065 64.0767 122.785 63.89C122.551 63.6567 122.295 63.5167 122.015 63.47L118.375 63.12ZM170.831 64.87V70.47C174.518 65.0567 178.134 62.3033 181.681 62.21C181.961 62.21 182.241 62.21 182.521 62.21L186.441 62.7L184.621 66.9C183.734 66.0133 182.591 65.57 181.191 65.57C177.784 65.6167 174.331 67.88 170.831 72.36V95.6L176.781 95.95C176.781 95.9967 176.758 96.3467 176.711 97L162.011 97.07C162.011 96.65 162.034 96.3233 162.081 96.09L165.721 95.6C166.094 95.5533 166.281 95.2267 166.281 94.62V64.24C166.188 63.9133 166.048 63.75 165.861 63.75L161.661 63.61L161.731 62.63C164.251 62.21 166.164 62 167.471 62C168.778 62 169.664 62.3033 170.131 62.91C170.598 63.5167 170.831 64.17 170.831 64.87ZM392.111 92.45C392.111 92.45 393.371 92.4733 395.891 92.52C395.891 94.1533 395.354 96.3467 394.281 99.1C393.907 100.08 393.464 101.037 392.951 101.97C392.484 102.903 392.111 103.65 391.831 104.21L390.711 104.07L391.061 101.69C391.761 97.4433 392.111 94.8767 392.111 93.99C392.111 93.1033 392.111 92.59 392.111 92.45Z" fill="#222222"/>
<path d="M216.859 81.8633C216.859 76.8503 216.924 71.8698 217.055 66.9219C217.25 61.974 217.348 56.9609 217.348 51.8828C217.348 48.9531 217.185 46.0234 216.859 43.0938C216.599 40.1641 216.469 37.2344 216.469 34.3047C216.469 33.3932 216.729 32.612 217.25 31.9609C217.836 31.3099 218.585 30.9844 219.496 30.9844C221.059 30.9844 222.23 31.3099 223.012 31.9609C223.793 32.612 224.346 33.4258 224.672 34.4023C224.997 35.3789 225.16 36.4857 225.16 37.7227C225.16 38.9596 225.16 40.1641 225.16 41.3359C225.16 41.5964 225.16 42.2474 225.16 43.2891C225.225 44.3307 225.29 45.4701 225.355 46.707C225.421 47.8789 225.453 48.9857 225.453 50.0273C225.518 51.069 225.551 51.7201 225.551 51.9805V55.2031C225.551 59.4349 225.486 63.6341 225.355 67.8008C225.225 71.9674 225.16 76.1992 225.16 80.4961V84.5977C225.16 84.9232 225.193 85.3789 225.258 85.9648C225.388 86.4857 225.486 86.7461 225.551 86.7461H226.332L249.477 77.5664C249.997 77.1107 250.453 76.8828 250.844 76.8828C251.234 76.8177 251.69 76.7852 252.211 76.7852C252.536 76.7852 252.96 76.8177 253.48 76.8828C254.001 76.8828 254.49 76.9805 254.945 77.1758C255.466 77.306 255.889 77.5339 256.215 77.8594C256.605 78.1198 256.801 78.543 256.801 79.1289C256.801 80.6263 255.987 81.9284 254.359 83.0352C252.276 84.1419 250.128 85.1836 247.914 86.1602C245.701 87.0716 243.454 87.8203 241.176 88.4062L240.688 88.7969C237.562 89.6432 234.633 90.8802 231.898 92.5078C229.229 94.1354 226.43 95.6328 223.5 97H222.621C220.863 97 219.561 96.4141 218.715 95.2422C217.868 94.0703 217.315 92.7031 217.055 91.1406C216.794 89.513 216.697 87.8529 216.762 86.1602C216.827 84.4023 216.859 82.9701 216.859 81.8633ZM261.535 79.7148C261.6 79.3242 261.6 78.2826 261.535 76.5898C261.47 74.8971 261.438 72.8138 261.438 70.3398C261.503 67.8008 261.568 65.0339 261.633 62.0391C261.763 59.0443 261.991 56.0169 262.316 52.957C262.707 49.8971 263.228 46.9674 263.879 44.168C264.595 41.3034 265.507 38.8294 266.613 36.7461C267.004 34.9883 267.948 33.7839 269.445 33.1328C270.943 32.4167 273.059 31.9935 275.793 31.8633C277.551 31.8633 279.048 32.319 280.285 33.2305C281.522 34.1419 282.564 35.2812 283.41 36.6484C284.322 37.9505 285.103 39.3828 285.754 40.9453C286.405 42.5078 286.991 43.9076 287.512 45.1445V45.6328C287.967 46.9349 288.293 48.888 288.488 51.4922C288.749 54.0312 288.911 56.7331 288.977 59.5977C289.107 62.3971 289.172 65.099 289.172 67.7031C289.172 70.3073 289.172 72.293 289.172 73.6602C289.172 75.6133 288.911 77.957 288.391 80.6914C287.87 83.3607 287.023 85.8997 285.852 88.3086C284.745 90.7174 283.28 92.7682 281.457 94.4609C279.634 96.1536 277.453 97 274.914 97C272.766 97 270.845 96.4466 269.152 95.3398C267.525 94.2331 266.125 92.8333 264.953 91.1406C263.846 89.3828 263 87.4948 262.414 85.4766C261.828 83.4583 261.535 81.5378 261.535 79.7148ZM271.008 86.2578C271.138 86.974 271.496 87.7227 272.082 88.5039C272.733 89.2201 273.482 89.5781 274.328 89.5781H275.109C277.844 87.1042 279.634 84.2721 280.48 81.082C281.327 77.8268 281.75 74.4089 281.75 70.8281C281.75 69.9818 281.717 68.6797 281.652 66.9219C281.587 65.1641 281.457 63.2109 281.262 61.0625C281.132 58.849 280.936 56.5378 280.676 54.1289C280.415 51.7201 280.09 49.474 279.699 47.3906C279.309 45.2422 278.853 43.3867 278.332 41.8242C277.811 40.2617 277.193 39.1875 276.477 38.6016C276.411 38.6667 276.314 38.7969 276.184 38.9922C276.118 39.1875 276.086 39.3177 276.086 39.3828C274.719 41.0755 273.482 43.3867 272.375 46.3164C271.268 49.2461 270.422 52.7292 269.836 56.7656C269.315 60.737 269.087 65.2292 269.152 70.2422C269.283 75.1901 269.901 80.5286 271.008 86.2578ZM297.715 50.418C296.999 49.8971 296.315 49.0508 295.664 47.8789C295.013 46.707 294.688 45.6654 294.688 44.7539C294.688 43.7773 295.078 43.0286 295.859 42.5078C296.641 41.987 297.454 41.7266 298.301 41.7266C299.342 41.7266 300.221 41.9219 300.938 42.3125C301.654 42.7031 302.337 43.3542 302.988 44.2656C303.704 45.1771 304.486 46.4141 305.332 47.9766C306.243 49.5391 307.383 51.5247 308.75 53.9336C310.117 56.2773 311.842 59.1094 313.926 62.4297C316.009 65.6849 318.581 69.4935 321.641 73.8555C321.836 74.3763 322.194 75.0273 322.715 75.8086C323.236 76.5247 323.561 76.9805 323.691 77.1758L324.082 76.3945L329.453 56.1797L329.844 55.3008L333.652 41.7266C333.457 40.5547 333.717 39.513 334.434 38.6016C335.15 37.6901 336.061 37.2344 337.168 37.2344C338.275 37.2344 339.382 37.625 340.488 38.4062C341.66 39.1224 342.246 40.099 342.246 41.3359V41.7266L331.113 83.4258C331.113 83.556 331.048 83.9792 330.918 84.6953C330.788 85.3464 330.658 86.0951 330.527 86.9414C330.397 87.7227 330.267 88.5365 330.137 89.3828C330.007 90.1641 329.909 90.7826 329.844 91.2383C329.779 91.8242 329.714 92.4753 329.648 93.1914C329.648 93.8424 329.518 94.4609 329.258 95.0469C329.062 95.5677 328.737 96.0234 328.281 96.4141C327.826 96.8047 327.142 97 326.23 97C324.668 97 323.496 96.5768 322.715 95.7305C321.934 94.8841 321.348 93.875 320.957 92.7031C320.566 91.4661 320.241 90.1966 319.98 88.8945C319.72 87.5273 319.297 86.388 318.711 85.4766L297.715 50.418ZM354.207 94.8516C353.556 92.2474 353.068 89.806 352.742 87.5273C352.417 85.1836 352.189 82.7096 352.059 80.1055C351.993 78.6081 351.993 77.3385 352.059 76.2969C352.124 75.1901 351.993 73.9857 351.668 72.6836C351.603 72.4232 351.44 72.2279 351.18 72.0977C350.984 71.9674 350.757 71.8047 350.496 71.6094C350.301 71.4141 350.105 71.1862 349.91 70.9258C349.715 70.6003 349.617 70.112 349.617 69.4609C349.617 68.9401 349.715 68.4844 349.91 68.0938C350.171 67.7031 350.398 67.3451 350.594 67.0195C350.854 66.6289 351.082 66.2383 351.277 65.8477C351.538 65.3919 351.668 64.8711 351.668 64.2852V62.8203C351.668 62.1693 351.603 61.0625 351.473 59.5C351.342 57.9375 351.212 56.2773 351.082 54.5195C350.952 52.7617 350.822 51.1016 350.691 49.5391C350.626 47.9766 350.561 46.9023 350.496 46.3164C350.431 45.2096 350.138 44.2331 349.617 43.3867C349.096 42.5404 348.836 41.5638 348.836 40.457C348.836 38.3737 349.259 36.9089 350.105 36.0625C350.952 35.2161 352.449 34.793 354.598 34.793C355.053 34.793 355.411 34.9883 355.672 35.3789C355.997 35.7695 356.355 35.9648 356.746 35.9648H357.137C357.332 35.8997 357.625 35.8346 358.016 35.7695C358.406 35.6393 358.667 35.5742 358.797 35.5742C364.266 33.2305 368.53 31.4076 371.59 30.1055C374.65 28.8034 376.961 27.8594 378.523 27.2734C380.086 26.6875 381.128 26.362 381.648 26.2969C382.234 26.2318 382.723 26.2969 383.113 26.4922C383.895 26.6224 384.415 26.8828 384.676 27.2734C385.001 27.599 385.164 28.1198 385.164 28.8359C385.164 29.487 385.066 30.138 384.871 30.7891C384.676 31.4401 384.22 31.9284 383.504 32.2539L370.711 38.4062L370.32 38.7969L359.578 43.3867C359.188 43.5169 358.96 43.8424 358.895 44.3633C358.829 44.8841 358.797 45.3073 358.797 45.6328C358.797 46.1536 358.862 47.0977 358.992 48.4648C359.122 49.832 359.253 51.2643 359.383 52.7617C359.513 54.194 359.643 55.4961 359.773 56.668C359.969 57.7747 360.099 58.3281 360.164 58.3281H360.262C360.262 58.3281 360.294 58.2956 360.359 58.2305C361.076 57.7096 362.215 56.8307 363.777 55.5938C365.34 54.2917 366.935 52.9896 368.562 51.6875C370.19 50.3854 371.622 49.2461 372.859 48.2695C374.096 47.2279 374.747 46.707 374.812 46.707C375.529 46.707 376.18 47.0651 376.766 47.7812C377.352 48.4974 377.645 49.2461 377.645 50.0273C377.645 50.8086 377.482 51.6875 377.156 52.6641C376.831 53.6406 376.31 54.3893 375.594 54.9102L360.359 68.4844C360.359 68.4844 360.359 68.6471 360.359 68.9727C360.359 69.2982 360.327 69.6562 360.262 70.0469C360.262 70.4375 360.262 70.8607 360.262 71.3164C360.262 71.707 360.262 72.0326 360.262 72.293C360.262 74.6367 360.424 76.9805 360.75 79.3242C361.076 81.6029 361.238 83.9141 361.238 86.2578H361.629C361.694 86.2578 361.987 85.9974 362.508 85.4766C363.029 84.9557 363.419 84.5326 363.68 84.207C363.81 84.0117 364.103 83.5885 364.559 82.9375C365.079 82.2865 365.926 81.2122 367.098 79.7148C368.27 78.2174 369.832 76.2318 371.785 73.7578C373.738 71.2839 376.245 68.1589 379.305 64.3828C379.565 64.1224 379.923 63.7318 380.379 63.2109C380.9 62.6901 381.225 62.4297 381.355 62.4297C381.551 62.2344 381.941 62.1693 382.527 62.2344C383.178 62.2344 383.634 62.2995 383.895 62.4297C384.22 62.5599 384.643 62.918 385.164 63.5039C385.685 64.0898 385.945 64.6432 385.945 65.1641C385.945 65.9453 385.522 66.987 384.676 68.2891C383.895 69.526 382.951 70.8281 381.844 72.1953C380.737 73.5625 379.63 74.8971 378.523 76.1992C377.417 77.4362 376.57 78.4453 375.984 79.2266C375.073 80.6589 373.966 82.4167 372.664 84.5C371.427 86.5182 370.06 88.4714 368.562 90.3594C367.065 92.1823 365.405 93.7773 363.582 95.1445C361.824 96.4466 359.936 97.0977 357.918 97.0977C356.941 97.0977 356.225 96.9349 355.77 96.6094C355.379 96.2839 354.858 95.6979 354.207 94.8516Z" fill="#81D8D1"/>
</svg>
