<svg width="60" height="60" viewBox="0 0 60 60" fill="none" xmlns="http://www.w3.org/2000/svg">
<circle cx="30" cy="30" r="29" stroke="#81D8D1" stroke-width="2"/>
<path d="M15.528 37.56C15.408 37.56 15.348 37.5 15.348 37.38C15.348 37.332 15.36 37.236 15.384 37.092C15.42 36.948 15.462 36.834 15.51 36.75C16.038 36.726 16.398 36.606 16.59 36.39C16.782 36.162 16.878 35.802 16.878 35.31V26.04H14.16C13.872 26.052 13.68 26.1 13.584 26.184C13.5 26.268 13.428 26.454 13.368 26.742L13.17 27.624C13.134 27.756 13.044 27.822 12.9 27.822C12.84 27.822 12.738 27.81 12.594 27.786C12.45 27.762 12.342 27.732 12.27 27.696L12.45 25.32C12.462 25.188 12.492 25.098 12.54 25.05C12.588 24.99 12.678 24.96 12.81 24.96H22.71C22.842 24.96 22.932 24.99 22.98 25.05C23.028 25.098 23.058 25.188 23.07 25.32L23.25 27.696C23.178 27.732 23.07 27.762 22.926 27.786C22.782 27.81 22.68 27.822 22.62 27.822C22.476 27.822 22.386 27.756 22.35 27.624L22.152 26.742C22.092 26.454 22.014 26.268 21.918 26.184C21.834 26.1 21.648 26.052 21.36 26.04H18.624V35.31C18.624 35.838 18.648 36.18 18.696 36.336C18.744 36.492 18.858 36.582 19.038 36.606C19.158 36.618 19.314 36.63 19.506 36.642C19.71 36.642 19.872 36.642 19.992 36.642C19.992 36.966 19.968 37.212 19.92 37.38C19.884 37.5 19.818 37.56 19.722 37.56H15.528ZM30.0921 37.83C29.2161 37.83 28.4001 37.68 27.6441 37.38C26.9001 37.068 26.2461 36.63 25.6821 36.066C25.1181 35.502 24.6741 34.836 24.3501 34.068C24.0381 33.3 23.8821 32.46 23.8821 31.548C23.8821 30.552 24.0561 29.64 24.4041 28.812C24.7641 27.972 25.2561 27.246 25.8801 26.634C26.5161 26.01 27.2541 25.53 28.0941 25.194C28.9341 24.858 29.8341 24.69 30.7941 24.69C31.7061 24.69 32.5401 24.852 33.2961 25.176C34.0641 25.488 34.7241 25.926 35.2761 26.49C35.8281 27.054 36.2541 27.72 36.5541 28.488C36.8661 29.244 37.0221 30.072 37.0221 30.972C37.0221 31.956 36.8481 32.868 36.5001 33.708C36.1641 34.548 35.6841 35.274 35.0601 35.886C34.4481 36.498 33.7161 36.978 32.8641 37.326C32.0241 37.662 31.1001 37.83 30.0921 37.83ZM30.5601 36.732C31.4841 36.732 32.2941 36.51 32.9901 36.066C33.6861 35.622 34.2261 35.004 34.6101 34.212C34.9941 33.42 35.1861 32.508 35.1861 31.476C35.1861 30.36 34.9821 29.376 34.5741 28.524C34.1781 27.672 33.6141 27.006 32.8821 26.526C32.1501 26.034 31.2921 25.788 30.3081 25.788C29.4441 25.788 28.6641 26.016 27.9681 26.472C27.2841 26.916 26.7381 27.534 26.3301 28.326C25.9221 29.118 25.7181 30.024 25.7181 31.044C25.7181 32.172 25.9281 33.162 26.3481 34.014C26.7801 34.866 27.3621 35.532 28.0941 36.012C28.8261 36.492 29.6481 36.732 30.5601 36.732ZM38.3644 37.56C38.2444 37.56 38.1844 37.5 38.1844 37.38C38.1844 37.332 38.1964 37.236 38.2204 37.092C38.2564 36.948 38.2984 36.834 38.3464 36.75C38.7904 36.726 39.0964 36.606 39.2644 36.39C39.4444 36.162 39.5344 35.802 39.5344 35.31V27.12C39.5344 26.712 39.5104 26.424 39.4624 26.256C39.4144 26.088 39.3064 25.986 39.1384 25.95C38.9824 25.902 38.7304 25.878 38.3824 25.878C38.3824 25.722 38.3944 25.578 38.4184 25.446C38.4424 25.302 38.4604 25.2 38.4724 25.14C38.5084 25.02 38.5744 24.96 38.6704 24.96H43.2064C44.6704 24.96 45.7864 25.266 46.5544 25.878C47.3344 26.478 47.7244 27.306 47.7244 28.362C47.7244 29.238 47.4784 29.994 46.9864 30.63C46.4944 31.266 45.8104 31.758 44.9344 32.106C44.0584 32.454 43.0324 32.628 41.8564 32.628C41.6644 32.628 41.4724 32.622 41.2804 32.61V35.31C41.2804 35.838 41.3044 36.18 41.3524 36.336C41.4004 36.492 41.5144 36.582 41.6944 36.606C41.7904 36.618 41.9164 36.63 42.0724 36.642C42.2404 36.642 42.3844 36.642 42.5044 36.642C42.5044 36.966 42.4804 37.212 42.4324 37.38C42.3964 37.5 42.3304 37.56 42.2344 37.56H38.3644ZM41.2804 31.458C41.8084 31.566 42.3004 31.62 42.7564 31.62C43.6564 31.62 44.4064 31.374 45.0064 30.882C45.6184 30.378 45.9244 29.616 45.9244 28.596C45.9244 27.624 45.6544 26.928 45.1144 26.508C44.5864 26.088 43.8544 25.878 42.9184 25.878C42.7144 25.878 42.4984 25.89 42.2704 25.914C42.0544 25.926 41.8804 25.944 41.7484 25.968C41.5564 26.016 41.4304 26.136 41.3704 26.328C41.3104 26.52 41.2804 26.784 41.2804 27.12V31.458Z" fill="#81D8D1"/>
</svg>
