<svg width="189" height="91" viewBox="0 0 189 91" fill="none" xmlns="http://www.w3.org/2000/svg">
<path d="M183.571 32.7213C184.183 37.1353 182.319 41.7126 178.352 46.2227C174.386 50.732 168.34 55.1479 160.654 59.2233C145.285 67.3732 123.413 74.1356 98.6804 77.5686C73.9481 81.0016 51.0605 80.4523 34.053 76.7965C25.5482 74.9683 18.5276 72.3663 13.4832 69.1076C8.43807 65.8485 5.39745 61.952 4.78475 57.538C4.17205 53.1239 6.03645 48.5466 10.0032 44.0365C13.9693 39.5272 20.0158 35.1113 27.7011 31.0359C43.0699 22.886 64.9425 16.1237 89.6749 12.6906C114.407 9.25762 137.295 9.80696 154.302 13.4628C162.807 15.2909 169.828 17.893 174.872 21.1516C179.917 24.4108 182.958 28.3072 183.571 32.7213Z" stroke="black" stroke-opacity="0.4" stroke-width="0.5"/>
<path d="M184.427 45.1289C184.427 49.5853 181.951 53.8628 177.402 57.7846C172.854 61.7059 166.257 65.2485 158.085 68.2286C141.741 74.188 119.147 77.8789 94.1772 77.8789C69.2077 77.8789 46.6131 74.188 30.2697 68.2286C22.097 65.2485 15.5008 61.7059 10.9524 57.7846C6.40327 53.8628 3.92725 49.5853 3.92725 45.1289C3.92725 40.6726 6.40327 36.395 10.9524 32.4732C15.5008 28.552 22.097 25.0093 30.2697 22.0293C46.6131 16.0698 69.2077 12.3789 94.1772 12.3789C119.147 12.3789 141.741 16.0698 158.085 22.0293C166.257 25.0093 172.854 28.552 177.402 32.4732C181.951 36.395 184.427 40.6726 184.427 45.1289Z" stroke="black" stroke-opacity="0.7" stroke-width="0.5"/>
</svg>
