<svg width="189" height="91" viewBox="0 0 189 91" fill="none" xmlns="http://www.w3.org/2000/svg">
<ellipse cx="94" cy="45.5" rx="83" ry="29.5" fill="#81D8D1" fill-opacity="0.85"/>
<path d="M183.571 32.7213C184.183 37.1353 182.319 41.7126 178.352 46.2227C174.386 50.732 168.34 55.1479 160.654 59.2233C145.285 67.3732 123.413 74.1356 98.6804 77.5686C73.9481 81.0016 51.0605 80.4523 34.053 76.7965C25.5482 74.9683 18.5276 72.3663 13.4832 69.1076C8.43807 65.8485 5.39745 61.952 4.78475 57.538C4.17205 53.1239 6.03645 48.5466 10.0032 44.0365C13.9693 39.5272 20.0158 35.1113 27.7011 31.0359C43.0699 22.886 64.9425 16.1237 89.6749 12.6906C114.407 9.25762 137.295 9.80696 154.302 13.4628C162.807 15.2909 169.828 17.893 174.872 21.1516C179.917 24.4108 182.958 28.3072 183.571 32.7213Z" stroke="black" stroke-opacity="0.4" stroke-width="0.5"/>
<path d="M184.428 45.1289C184.428 49.5853 181.952 53.8628 177.403 57.7846C172.854 61.7059 166.258 65.2485 158.085 68.2286C141.742 74.188 119.147 77.8789 94.1777 77.8789C69.2082 77.8789 46.6135 74.188 30.2702 68.2286C22.0975 65.2485 15.5013 61.7059 10.9529 57.7846C6.40376 53.8628 3.92773 49.5853 3.92773 45.1289C3.92773 40.6726 6.40376 36.395 10.9529 32.4732C15.5013 28.552 22.0975 25.0093 30.2702 22.0293C46.6135 16.0698 69.2082 12.3789 94.1777 12.3789C119.147 12.3789 141.742 16.0698 158.085 22.0293C166.258 25.0093 172.854 28.552 177.403 32.4732C181.952 36.395 184.428 40.6726 184.428 45.1289Z" stroke="black" stroke-opacity="0.7" stroke-width="0.5"/>
</svg>
